<svg width="195" height="195" viewBox="0 0 195 195" fill="none" xmlns="http://www.w3.org/2000/svg">
<path d="M195 97.5C195 151.348 151.348 195 97.5 195C43.6522 195 0 151.348 0 97.5C0 43.6522 43.6522 0 97.5 0C151.348 0 195 43.6522 195 97.5Z" fill="#F4F4F4"/>
<path d="M58.7101 146H145.138C148.595 146 151.399 143.197 151.399 139.74V68.7914C151.399 65.3343 148.595 62.5311 145.138 62.5311H61.6703C58.2128 62.5311 55.4102 65.3343 55.4102 68.7914V142.701C55.4102 144.523 56.8876 146 58.7101 146Z" fill="#D87D5A"/>
<path d="M143.654 77.742H55.4102V68.7913C55.4102 65.3343 58.2129 62.5326 61.6704 62.5326H145.139C148.596 62.5326 151.399 65.3343 151.399 68.7913V69.9977C151.399 74.2748 147.932 77.742 143.654 77.742Z" fill="#D87D5A"/>
<path d="M54.3117 77.742H58.591C57.6996 78.4132 57.1205 79.4777 57.1205 80.6797V143.062C57.1205 144.264 57.6996 145.329 58.591 146H54.3117C51.074 146 48.4492 143.375 48.4492 140.138V83.6045C48.4492 80.3659 51.074 77.742 54.3117 77.742Z" fill="#D66B4B"/>
<path d="M44.2365 120.907H73.1526C75.541 120.907 77.4772 118.97 77.4772 116.582V104.377C77.4772 101.989 75.541 100.052 73.1526 100.052H44.2364C44.1059 100.052 44 100.159 44 100.289V120.671C44 120.801 44.1059 120.907 44.2365 120.907Z" fill="#D87D5A"/>
<path d="M45.2091 100.052H52.2749C51.607 100.052 51.0658 100.574 51.0658 101.219V119.74C51.0658 120.385 51.607 120.907 52.2749 120.907H45.2091C44.5413 120.907 44 120.385 44 119.74V101.219C44 100.574 44.5413 100.052 45.2091 100.052Z" fill="#D87D5A"/>
<path d="M62.1758 110.294C62.1758 113.163 64.5011 115.487 67.3694 115.487C70.2377 115.487 72.563 113.163 72.563 110.294C72.563 107.426 70.2377 105.1 67.3694 105.1C64.5011 105.1 62.1758 107.426 62.1758 110.294Z" fill="#FDCE14"/>
<path d="M62.4303 72.5478H144.368C145.329 72.5478 146.107 71.7696 146.107 70.8092C146.107 69.8487 145.329 69.0705 144.368 69.0705H62.4303C61.4699 69.0705 60.6914 69.8487 60.6914 70.8092C60.6914 71.7696 61.4699 72.5478 62.4303 72.5478Z" fill="#945C46"/>
<path d="M120.904 76.7845C121.722 74.6654 122.177 72.3655 122.177 69.9572C122.177 59.4864 113.689 51 103.219 51C92.7492 51 84.2617 59.4864 84.2617 69.9572C84.2617 72.3655 84.7156 74.6654 85.5344 76.7845H120.904Z" fill="#FDCE14"/>
<path d="M115.715 76.7845C117.181 74.5077 118.041 71.8029 118.041 68.8926C118.041 60.8214 111.498 54.2791 103.427 54.2791C95.3555 54.2791 88.8125 60.8214 88.8125 68.8926C88.8125 71.8029 89.673 74.5077 91.1391 76.7845H115.715Z" fill="#FFA500"/>
<path d="M116.137 76.7845C117.216 74.7464 117.834 72.4249 117.834 69.9572C117.834 61.886 111.291 55.3423 103.22 55.3423C95.1485 55.3423 88.6055 61.886 88.6055 69.9572C88.6055 72.4249 89.223 74.7464 90.303 76.7845H116.137Z" fill="#FFA500"/>
<path d="M101.669 74.2777C102.241 74.5106 102.676 74.716 103.023 74.9171H109.041C108.684 72.7228 107.342 71.1795 104.664 70.0556C102.618 69.1834 101.972 68.6916 101.983 67.7673C101.994 66.762 102.721 66.169 103.988 66.1863C105.427 66.2066 106.859 66.869 107.607 67.3623L108.58 63.1531C108.331 63.0012 108.038 62.8551 107.711 62.7206L108.158 61.345L105.021 60.4251L104.513 61.9916C104.3 61.9757 104.084 61.9656 103.865 61.9627C99.7197 61.9048 97.0166 64.6429 96.9747 68.301C96.9141 70.6341 98.2251 72.8631 101.669 74.2777Z" fill="#FDCE14"/>
<path d="M58.5938 77.742H136.382V72.581H58.5938V77.742Z" fill="#D87D5A"/>
<path d="M57.934 62.1145C51.9794 62.1145 47.1523 66.9427 47.1523 72.8963C47.1523 78.8514 51.9794 83.6782 57.934 83.6782C63.8885 83.6782 68.7157 78.8514 68.7157 72.8963C68.7157 66.9427 63.8885 62.1145 57.934 62.1145Z" fill="#34A770"/>
<path d="M63.8396 69.26C62.9984 69.5652 62.2137 70.0035 61.4602 70.4794C60.704 70.9552 59.9975 71.4962 59.3022 72.0517C58.6077 72.61 57.9429 73.2001 57.2918 73.8062C56.8953 74.1779 56.5094 74.5555 56.1263 74.9417L52.9 71.988L52.5391 72.286L55.4023 76.9537L55.9533 77.8519L56.9542 76.9334H56.9545C57.414 76.2478 57.9342 75.5463 58.4565 74.8737C58.984 74.1996 59.529 73.5357 60.1047 72.9007C60.6811 72.2686 61.2733 71.6452 61.9158 71.0825C62.5566 70.5199 63.2314 69.9905 63.9788 69.5753L63.8396 69.26Z" fill="white"/>
</svg>
