<svg width="195" height="195" viewBox="0 0 195 195" fill="none" xmlns="http://www.w3.org/2000/svg">
<circle cx="97.5" cy="97.5" r="97.5" fill="#F4F4F4"/>
<path d="M132.217 64.5665L131.99 116.305L131.933 129.496L131.07 129.49L93.8994 129.328L75.9378 129.251L60.0291 129.181L60.316 64.2484L132.217 64.5665Z" fill="#E89D53"/>
<path d="M101.425 78.9452L90.9805 78.899L91.0443 64.385L101.49 64.4311L101.425 78.9452Z" fill="#DBAC85"/>
<path d="M101.199 129.363L90.754 129.317L90.8177 114.803L101.263 114.849L101.199 129.363Z" fill="#DBAC85"/>
<path d="M115.19 70.0478L108.45 70.0182L108.454 68.8646L115.195 68.8942L115.19 70.0478Z" fill="#3F5FA1"/>
<path d="M124.831 72.7017L108.435 72.6295L108.438 71.9615L124.834 72.0336L124.831 72.7017Z" fill="#A6D4E8"/>
<path d="M124.827 74.2805L108.431 74.2086L108.434 73.5406L124.831 73.6124L124.827 74.2805Z" fill="#A6D4E8"/>
<path d="M124.816 75.8597L108.419 75.7875L108.422 75.1195L124.819 75.1916L124.816 75.8597Z" fill="#A6D4E8"/>
<path d="M71.8097 69.4128L64.7265 69.3815L64.6952 76.4647L71.7785 76.496L71.8097 69.4128ZM71.2894 69.9282L71.2631 75.9757L65.2152 75.9494L65.2419 69.9018L71.2894 69.9282Z" fill="#231F20"/>
<path d="M66.269 74.8196C66.2696 74.6867 66.27 74.5592 66.2709 74.4215C67.5856 74.4272 68.9007 74.4329 70.2236 74.4388C70.2232 74.568 70.2225 74.6984 70.2221 74.8369C68.9051 74.8312 67.59 74.8255 66.269 74.8196Z" fill="#231F20"/>
<path d="M69.0113 71.8534C68.9224 71.8532 68.8542 71.8528 68.7652 71.8523C68.9234 71.5807 69.0721 71.3256 69.2302 71.0541C69.3847 71.3235 69.5312 71.58 69.6869 71.852C69.6013 71.8554 69.534 71.8582 69.4532 71.8619C69.4499 72.6456 69.4462 73.4275 69.4427 74.2163C69.2915 74.216 69.1534 74.2152 69.0007 74.2144C69.0041 73.4347 69.0078 72.6528 69.0113 71.8534Z" fill="#231F20"/>
<path d="M67.0657 71.8458C66.9774 71.8457 66.9089 71.8453 66.8199 71.8447C66.9777 71.5732 67.1264 71.3174 67.2848 71.0447C67.4394 71.3153 67.587 71.5739 67.7447 71.8499C67.6535 71.8498 67.5858 71.8493 67.5059 71.8489C67.5025 72.6403 67.4991 73.4215 67.4956 74.2089C67.345 74.2081 67.207 74.2077 67.055 74.2069C67.0587 73.4258 67.0621 72.645 67.0657 71.8458Z" fill="#231F20"/>
<path d="M75.8286 74.6074C75.7221 74.6068 75.6213 74.6059 75.5206 74.6061C75.328 74.6063 75.1351 74.6087 74.9424 74.6066C74.8088 74.6053 74.7058 74.5562 74.6381 74.4287C74.5003 74.1697 74.3522 73.9165 74.2153 73.6729C74.3519 73.6859 74.4907 73.7083 74.6299 73.7105C75.0281 73.7174 75.4268 73.7159 75.8323 73.7175C75.831 74.0288 75.83 74.3104 75.8286 74.6074Z" fill="#231F20"/>
<path d="M77.4364 72.2854C77.587 72.5462 77.7396 72.8011 77.8818 73.0613C77.9339 73.1571 77.9243 73.2596 77.8622 73.36C77.7068 73.6117 77.5581 73.8679 77.4144 74.109C77.3609 73.992 77.3125 73.8709 77.2518 73.7563C77.0767 73.4286 76.8967 73.1035 76.7187 72.777C76.7012 72.7449 76.6863 72.7117 76.6652 72.6688C76.9226 72.541 77.1754 72.4152 77.4364 72.2854Z" fill="#231F20"/>
<path d="M75.3793 72.5105C75.1366 72.3493 74.904 72.1947 74.6601 72.0328C74.8159 71.7668 74.9658 71.504 75.124 71.2464C75.171 71.1695 75.2499 71.1267 75.3473 71.1284C75.6408 71.1339 75.9346 71.1375 76.2281 71.1422L76.2513 71.1463C76.18 71.2452 76.1025 71.3406 76.038 71.4441C75.8382 71.7649 75.6432 72.0884 75.4461 72.4106C75.4269 72.442 75.4052 72.472 75.3793 72.5105Z" fill="#231F20"/>
<path d="M77.1695 71.6903C77.2321 71.6565 77.2847 71.6281 77.3377 71.5997L77.353 71.6102C77.3083 71.6907 77.2643 71.7712 77.2196 71.8517C77.1502 71.9754 77.0827 72.1002 77.0096 72.2219L76.931 72.2829C76.6854 72.2866 76.4396 72.2837 76.1862 72.259C76.2461 72.222 76.3062 72.1853 76.3733 72.1437C76.2838 71.9861 76.2023 71.8268 76.1057 71.6782C76.0472 71.5881 76.0599 71.524 76.1068 71.4332C76.2291 71.1965 76.4223 71.1124 76.6733 71.1287C76.7918 71.1368 76.8846 71.1866 76.9437 71.2964C77.0137 71.4268 77.0909 71.5536 77.1695 71.6903Z" fill="#231F20"/>
<path d="M75.22 73.1732C75.1623 73.1414 75.1045 73.1095 75.0349 73.0714C74.9479 73.2195 74.8521 73.362 74.7785 73.5148C74.7231 73.6293 74.6489 73.6573 74.5274 73.6581C74.2675 73.6604 74.1165 73.5509 73.9958 73.298C73.9495 73.2009 73.9549 73.1026 74.0119 73.0075C74.0899 72.8776 74.1641 72.7456 74.2419 72.611C74.1855 72.5754 74.1351 72.5437 74.0847 72.5119L74.087 72.4804C74.2357 72.4812 74.3875 72.5003 74.5326 72.4781C74.7786 72.4404 74.9276 72.5225 75.0159 72.7578C75.0686 72.8982 75.1604 73.0239 75.2345 73.1563L75.22 73.1732Z" fill="#231F20"/>
<path d="M76.4839 73.498C76.4833 73.5621 76.4831 73.6258 76.4827 73.7078C76.5351 73.708 76.5838 73.7079 76.6325 73.7082C76.734 73.7087 76.8353 73.7052 76.9365 73.7108C77.0169 73.7153 77.134 73.7021 77.1698 73.7475C77.2678 73.8718 77.3697 74.014 77.3287 74.1892C77.3054 74.2892 77.2616 74.3869 77.211 74.4763C77.1527 74.5803 77.0557 74.6288 76.9314 74.6242C76.784 74.6186 76.6362 74.6218 76.4784 74.6208C76.4778 74.6952 76.4775 74.7567 76.4772 74.8182L76.4572 74.8236C76.3564 74.6539 76.2652 74.4777 76.1517 74.3172C76.0682 74.1987 76.0757 74.1094 76.1552 73.9942C76.2673 73.8325 76.3607 73.6574 76.4616 73.4884L76.4839 73.498Z" fill="#231F20"/>
<path d="M79.4972 69.4463L72.414 69.4154L72.3827 76.4987L79.466 76.5296L79.4972 69.4463ZM78.9773 69.9621L78.9506 76.0096L72.903 75.9829L72.9294 69.9354L78.9773 69.9621Z" fill="#231F20"/>
<path d="M83.2193 71.115C83.1548 71.1979 83.1064 71.3104 83.0458 71.4005C83.0126 71.4503 82.9827 71.5025 82.9399 71.5723L83.4134 71.5743C83.1715 71.9184 82.9398 72.2482 82.7039 72.5837C83.1206 72.9596 83.881 73.0123 84.3976 72.7043C84.8038 72.4623 85.0417 72.0865 85.2026 71.6571C85.2661 71.4874 85.3115 71.3102 85.3639 71.1243L83.2193 71.115Z" fill="#231F20"/>
<path d="M82.2978 74.8901C82.2985 74.7597 82.299 74.6345 82.2998 74.4968C82.6679 74.4984 83.0297 74.4999 83.4036 74.5018C83.4059 74.0114 83.4077 73.5331 83.4101 73.0475C83.5551 73.0481 83.6884 73.0487 83.8338 73.0492C83.832 73.529 83.8297 74.0069 83.8275 74.498C84.2011 74.4999 84.5626 74.5014 84.9325 74.503C84.932 74.641 84.9312 74.7663 84.9307 74.9018C84.059 74.898 83.1845 74.8939 82.2978 74.8901Z" fill="#231F20"/>
<path d="M82.9503 71.1139L81.9073 71.1092C82.0066 71.6033 82.1791 72.0494 82.5217 72.4305C82.6721 72.216 82.8127 72.016 82.9666 71.797L82.5026 71.7951C82.6553 71.5622 82.8011 71.3408 82.9503 71.1139Z" fill="#231F20"/>
<path d="M87.1844 69.4803L80.1011 69.449L80.0702 76.5322L87.1535 76.5635L87.1844 69.4803ZM86.6644 69.9957L86.6377 76.0432L80.5902 76.0169L80.6169 69.9693L86.6644 69.9957Z" fill="#231F20"/>
<path d="M81.5755 95.0257L81.3965 135.861L81.3516 146.272L80.67 146.268L51.3332 146.139L37.1568 146.078L24.6007 146.024L24.8272 94.7746L81.5755 95.0257Z" fill="#E89D53"/>
<path d="M57.2736 106.374L49.0299 106.338L49.0802 94.8824L57.3242 94.9188L57.2736 106.374Z" fill="#DBAC85"/>
<path d="M57.0942 146.167L48.8502 146.13L48.9005 134.675L57.1445 134.712L57.0942 146.167Z" fill="#DBAC85"/>
<path d="M68.1385 99.3519L62.8183 99.3286L62.8221 98.4181L68.1424 98.4414L68.1385 99.3519Z" fill="#3F5FA1"/>
<path d="M75.7469 101.446L62.8059 101.389L62.8081 100.862L75.7492 100.919L75.7469 101.446Z" fill="#A6D4E8"/>
<path d="M75.743 102.693L62.802 102.636L62.8045 102.109L75.7456 102.165L75.743 102.693Z" fill="#A6D4E8"/>
<path d="M75.7352 103.939L62.7941 103.882L62.7967 103.355L75.7378 103.412L75.7352 103.939Z" fill="#A6D4E8"/>
<path d="M33.898 98.8507L28.3075 98.826L28.2828 104.417L33.8733 104.441L33.898 98.8507ZM33.4874 99.2574L33.4666 104.031L28.6932 104.01L28.7143 99.2366L33.4874 99.2574Z" fill="#231F20"/>
<path d="M29.5239 103.118C29.5243 103.013 29.5247 102.913 29.5253 102.804C30.563 102.808 31.601 102.813 32.645 102.817C32.6447 102.919 32.6442 103.022 32.6439 103.132C31.6044 103.127 30.5665 103.123 29.5239 103.118Z" fill="#231F20"/>
<path d="M31.69 100.777C31.6198 100.777 31.566 100.776 31.4958 100.776C31.6206 100.562 31.738 100.36 31.8628 100.146C31.9848 100.359 32.1003 100.561 32.2232 100.776C32.1557 100.779 32.1026 100.781 32.0388 100.784C32.0362 101.402 32.0333 102.019 32.0305 102.642C31.9111 102.642 31.8022 102.641 31.6816 102.64C31.6843 102.025 31.6873 101.408 31.69 100.777Z" fill="#231F20"/>
<path d="M30.1546 100.771C30.0849 100.771 30.0309 100.771 29.9606 100.77C30.0852 100.556 30.2025 100.354 30.3276 100.139C30.4496 100.352 30.5661 100.556 30.6905 100.774C30.6186 100.774 30.5651 100.774 30.5021 100.773C30.4994 101.398 30.4967 102.015 30.4939 102.636C30.3751 102.635 30.2661 102.635 30.1462 102.635C30.1491 102.018 30.1518 101.402 30.1546 100.771Z" fill="#231F20"/>
<path d="M37.0693 102.951C36.9852 102.95 36.9057 102.949 36.8263 102.95C36.6742 102.95 36.522 102.952 36.3699 102.95C36.2644 102.949 36.1831 102.91 36.1297 102.809C36.021 102.605 35.904 102.405 35.796 102.213C35.9038 102.223 36.0133 102.241 36.1232 102.243C36.4375 102.248 36.7522 102.247 37.0722 102.248C37.0712 102.494 37.0704 102.716 37.0693 102.951Z" fill="#231F20"/>
<path d="M38.3382 101.118C38.4571 101.324 38.5775 101.525 38.6898 101.73C38.7308 101.806 38.7233 101.887 38.6743 101.966C38.5516 102.165 38.4343 102.367 38.3208 102.557C38.2787 102.465 38.2404 102.369 38.1925 102.279C38.0543 102.02 37.9122 101.764 37.7718 101.506C37.758 101.481 37.7462 101.454 37.7295 101.421C37.9327 101.32 38.1322 101.22 38.3382 101.118Z" fill="#231F20"/>
<path d="M36.7154 101.296C36.5238 101.168 36.3402 101.046 36.1478 100.919C36.2707 100.709 36.3891 100.501 36.5139 100.298C36.551 100.237 36.6133 100.203 36.6902 100.205C36.9218 100.209 37.1537 100.212 37.3853 100.216L37.4036 100.219C37.3474 100.297 37.2862 100.372 37.2353 100.454C37.0776 100.707 36.9237 100.962 36.7681 101.217C36.753 101.241 36.7358 101.265 36.7154 101.296Z" fill="#231F20"/>
<path d="M38.1295 100.648C38.1789 100.622 38.2204 100.599 38.2622 100.577L38.2743 100.585C38.239 100.649 38.2043 100.712 38.169 100.776C38.1143 100.873 38.061 100.972 38.0033 101.068L37.9412 101.116C37.7474 101.119 37.5534 101.117 37.3534 101.097C37.4007 101.068 37.4481 101.039 37.5011 101.006C37.4304 100.882 37.3661 100.756 37.2899 100.639C37.2437 100.568 37.2537 100.517 37.2908 100.445C37.3872 100.258 37.5398 100.192 37.7378 100.205C37.8314 100.211 37.9046 100.251 37.9512 100.337C38.0065 100.44 38.0674 100.54 38.1295 100.648Z" fill="#231F20"/>
<path d="M36.5916 101.819C36.546 101.793 36.5005 101.768 36.4455 101.738C36.3769 101.855 36.3012 101.968 36.2431 102.088C36.1994 102.179 36.1409 102.201 36.0449 102.201C35.8398 102.203 35.7206 102.117 35.6254 101.917C35.5889 101.84 35.5931 101.763 35.6381 101.688C35.6997 101.585 35.7582 101.481 35.8197 101.375C35.7751 101.347 35.7353 101.322 35.6955 101.297L35.6973 101.272C35.8147 101.272 35.9345 101.287 36.049 101.27C36.2432 101.24 36.3608 101.305 36.4305 101.491C36.4721 101.602 36.5446 101.701 36.603 101.805L36.5916 101.819Z" fill="#231F20"/>
<path d="M37.5894 102.075C37.5889 102.126 37.5888 102.176 37.5885 102.241C37.6298 102.241 37.6682 102.241 37.7067 102.241C37.7868 102.241 37.8667 102.239 37.9466 102.243C38.01 102.246 38.1025 102.236 38.1308 102.272C38.2081 102.37 38.2885 102.482 38.2561 102.621C38.2378 102.699 38.2032 102.777 38.1632 102.847C38.1172 102.929 38.0407 102.967 37.9426 102.964C37.8263 102.959 37.7096 102.962 37.585 102.961C37.5845 103.02 37.5843 103.068 37.5841 103.117L37.5684 103.121C37.4887 102.987 37.4167 102.848 37.3272 102.722C37.2613 102.628 37.2672 102.558 37.3299 102.467C37.4184 102.339 37.4921 102.201 37.5718 102.067L37.5894 102.075Z" fill="#231F20"/>
<path d="M39.9644 98.8772L34.3739 98.8528L34.3492 104.443L39.9397 104.468L39.9644 98.8772ZM39.5541 99.2842L39.533 104.057L34.7599 104.036L34.7807 99.2631L39.5541 99.2842Z" fill="#231F20"/>
<path d="M42.902 100.194C42.8512 100.26 42.8129 100.348 42.7651 100.42C42.7389 100.459 42.7154 100.5 42.6815 100.555L43.0553 100.557C42.8644 100.828 42.6815 101.089 42.4953 101.353C42.8242 101.65 43.4243 101.692 43.832 101.449C44.1526 101.258 44.3404 100.961 44.4674 100.622C44.5175 100.488 44.5533 100.348 44.5947 100.202L42.902 100.194Z" fill="#231F20"/>
<path d="M42.1774 103.174C42.1779 103.071 42.1783 102.972 42.1789 102.863C42.4694 102.865 42.755 102.866 43.0501 102.867C43.0519 102.48 43.0534 102.103 43.0552 101.719C43.1697 101.72 43.2749 101.72 43.3897 101.721C43.3882 102.099 43.3864 102.477 43.3847 102.864C43.6795 102.866 43.9648 102.867 44.2568 102.868C44.2564 102.977 44.2558 103.076 44.2554 103.183C43.5674 103.18 42.8772 103.177 42.1774 103.174Z" fill="#231F20"/>
<path d="M42.6925 100.193L41.8693 100.19C41.9476 100.58 42.0838 100.932 42.3542 101.232C42.4729 101.063 42.5838 100.905 42.7053 100.732L42.3391 100.731C42.4596 100.547 42.5747 100.372 42.6925 100.193Z" fill="#231F20"/>
<path d="M46.0345 98.904L40.4439 98.8793L40.4195 104.47L46.0101 104.494L46.0345 98.904ZM45.6241 99.3107L45.603 104.084L40.8299 104.063L40.851 99.2899L45.6241 99.3107Z" fill="#231F20"/>
<path d="M164.576 84.0257L164.396 124.861L164.352 135.272L163.67 135.268L134.333 135.139L120.157 135.078L107.601 135.024L107.827 83.7746L164.576 84.0257Z" fill="#E89D53"/>
<path d="M140.274 95.3742L132.03 95.3378L132.08 83.8824L140.324 83.9188L140.274 95.3742Z" fill="#DBAC85"/>
<path d="M140.094 135.167L131.85 135.13L131.9 123.675L140.144 123.712L140.094 135.167Z" fill="#DBAC85"/>
<path d="M151.139 88.3519L145.818 88.3286L145.822 87.4181L151.142 87.4414L151.139 88.3519Z" fill="#3F5FA1"/>
<path d="M158.747 90.4464L145.806 90.3895L145.808 89.8622L158.749 89.9192L158.747 90.4464Z" fill="#A6D4E8"/>
<path d="M158.743 91.6925L145.802 91.6358L145.805 91.1086L158.746 91.1653L158.743 91.6925Z" fill="#A6D4E8"/>
<path d="M158.735 92.9389L145.794 92.882L145.797 92.3547L158.738 92.4117L158.735 92.9389Z" fill="#A6D4E8"/>
<path d="M116.898 87.8507L111.307 87.826L111.283 93.4165L116.873 93.4412L116.898 87.8507ZM116.487 88.2574L116.467 93.0305L111.693 93.0097L111.714 88.2366L116.487 88.2574Z" fill="#231F20"/>
<path d="M112.524 92.1181C112.524 92.0131 112.525 91.9126 112.525 91.8039C113.563 91.8084 114.601 91.8129 115.645 91.8175C115.645 91.9195 115.644 92.0224 115.644 92.1317C114.604 92.1272 113.566 92.1227 112.524 92.1181Z" fill="#231F20"/>
<path d="M114.69 89.7769C114.62 89.7768 114.566 89.7765 114.496 89.7761C114.621 89.5618 114.738 89.3604 114.863 89.1461C114.985 89.3587 115.1 89.5612 115.223 89.7758C115.156 89.7785 115.103 89.7808 115.039 89.7836C115.036 90.4022 115.033 91.0193 115.031 91.6419C114.911 91.6416 114.802 91.641 114.682 91.6404C114.684 91.025 114.687 90.4079 114.69 89.7769Z" fill="#231F20"/>
<path d="M113.155 89.771C113.085 89.7709 113.031 89.7705 112.961 89.7701C113.085 89.5558 113.203 89.3539 113.328 89.1387C113.45 89.3522 113.566 89.5564 113.691 89.7742C113.619 89.7741 113.565 89.7738 113.502 89.7734C113.499 90.3981 113.497 91.0146 113.494 91.6361C113.375 91.6354 113.266 91.6351 113.146 91.6345C113.149 91.018 113.152 90.4017 113.155 89.771Z" fill="#231F20"/>
<path d="M120.069 91.9506C119.985 91.9501 119.906 91.9494 119.826 91.9495C119.674 91.9497 119.522 91.9516 119.37 91.95C119.264 91.9489 119.183 91.9101 119.13 91.8095C119.021 91.6051 118.904 91.4053 118.796 91.213C118.904 91.2232 119.013 91.2409 119.123 91.2427C119.438 91.2481 119.752 91.247 120.072 91.2482C120.071 91.4939 120.07 91.7162 120.069 91.9506Z" fill="#231F20"/>
<path d="M121.338 90.1179C121.457 90.3237 121.578 90.5249 121.69 90.7303C121.731 90.8059 121.723 90.8868 121.674 90.9661C121.552 91.1647 121.434 91.3669 121.321 91.5572C121.279 91.4649 121.24 91.3692 121.192 91.2788C121.054 91.0202 120.912 90.7636 120.772 90.5059C120.758 90.4806 120.746 90.4544 120.729 90.4205C120.933 90.3196 121.132 90.2203 121.338 90.1179Z" fill="#231F20"/>
<path d="M119.715 90.2955C119.524 90.1683 119.34 90.0463 119.148 89.9185C119.271 89.7086 119.389 89.5011 119.514 89.2978C119.551 89.2371 119.613 89.2034 119.69 89.2047C119.922 89.209 120.154 89.2119 120.385 89.2156L120.404 89.2188C120.347 89.2969 120.286 89.3722 120.235 89.4538C120.078 89.707 119.924 89.9624 119.768 90.2167C119.753 90.2415 119.736 90.2651 119.715 90.2955Z" fill="#231F20"/>
<path d="M121.129 89.6482C121.179 89.6215 121.22 89.5991 121.262 89.5767L121.274 89.585C121.239 89.6486 121.204 89.7121 121.169 89.7756C121.114 89.8733 121.061 89.9718 121.003 90.0678L120.941 90.116C120.747 90.1189 120.553 90.1165 120.353 90.0971C120.401 90.0679 120.448 90.0389 120.501 90.006C120.43 89.8817 120.366 89.7559 120.29 89.6387C120.244 89.5676 120.254 89.517 120.291 89.4453C120.387 89.2585 120.54 89.1921 120.738 89.205C120.831 89.2113 120.905 89.2507 120.951 89.3373C121.006 89.4402 121.067 89.5403 121.129 89.6482Z" fill="#231F20"/>
<path d="M119.592 90.8186C119.546 90.7935 119.5 90.7683 119.445 90.7382C119.377 90.8551 119.301 90.9676 119.243 91.0882C119.199 91.1786 119.141 91.2007 119.045 91.2014C118.84 91.2032 118.721 91.1167 118.625 90.9171C118.589 90.8405 118.593 90.7629 118.638 90.6878C118.7 90.5853 118.758 90.4812 118.82 90.3749C118.775 90.3468 118.735 90.3218 118.696 90.2967L118.697 90.2718C118.815 90.2725 118.935 90.2875 119.049 90.27C119.243 90.2403 119.361 90.3051 119.43 90.4908C119.472 90.6016 119.545 90.7008 119.603 90.8053L119.592 90.8186Z" fill="#231F20"/>
<path d="M120.589 91.0749C120.589 91.1255 120.589 91.1758 120.588 91.2406C120.63 91.2407 120.668 91.2407 120.707 91.2409C120.787 91.2413 120.867 91.2385 120.947 91.2429C121.01 91.2465 121.102 91.236 121.131 91.2719C121.208 91.37 121.289 91.4822 121.256 91.6205C121.238 91.6994 121.203 91.7765 121.163 91.8471C121.117 91.9292 121.041 91.9674 120.943 91.9639C120.826 91.9594 120.71 91.9619 120.585 91.9612C120.585 92.0199 120.584 92.0684 120.584 92.117L120.568 92.1212C120.489 91.9873 120.417 91.8482 120.327 91.7216C120.261 91.628 120.267 91.5576 120.33 91.4666C120.418 91.339 120.492 91.2008 120.572 91.0674L120.589 91.0749Z" fill="#231F20"/>
<path d="M122.964 87.8772L117.374 87.8528L117.349 93.4433L122.94 93.4677L122.964 87.8772ZM122.554 88.2842L122.533 93.0573L117.76 93.0362L117.781 88.2631L122.554 88.2842Z" fill="#231F20"/>
<path d="M125.902 89.1941C125.851 89.2596 125.813 89.3484 125.765 89.4195C125.739 89.4588 125.715 89.5 125.682 89.5551L126.055 89.5567C125.864 89.8282 125.681 90.0886 125.495 90.3534C125.824 90.65 126.424 90.6916 126.832 90.4485C127.153 90.2576 127.34 89.9609 127.467 89.622C127.518 89.4881 127.553 89.3482 127.595 89.2016L125.902 89.1941Z" fill="#231F20"/>
<path d="M125.177 92.1737C125.178 92.0708 125.178 91.9719 125.179 91.8633C125.469 91.8646 125.755 91.8657 126.05 91.8672C126.052 91.4802 126.053 91.1027 126.055 90.7194C126.17 90.7198 126.275 90.7203 126.39 90.7208C126.388 91.0994 126.386 91.4766 126.385 91.8642C126.68 91.8657 126.965 91.8669 127.257 91.8681C127.256 91.9771 127.256 92.076 127.255 92.1829C126.567 92.1799 125.877 92.1767 125.177 92.1737Z" fill="#231F20"/>
<path d="M125.692 89.1933L124.869 89.1895C124.948 89.5796 125.084 89.9317 125.354 90.2324C125.473 90.0631 125.584 89.9053 125.705 89.7324L125.339 89.7309C125.46 89.5471 125.575 89.3724 125.692 89.1933Z" fill="#231F20"/>
<path d="M129.034 87.904L123.444 87.8793L123.42 93.4698L129.01 93.4945L129.034 87.904ZM128.624 88.3107L128.603 93.0838L123.83 93.063L123.851 88.2899L128.624 88.3107Z" fill="#231F20"/>
</svg>
