<svg width="194" height="197" viewBox="0 0 194 197" fill="none" xmlns="http://www.w3.org/2000/svg">
<path d="M194 99.839C194 153.411 150.572 196.839 97 196.839C43.4284 196.839 0 153.411 0 99.839C0 46.2674 43.4284 2.83902 97 2.83902C150.572 2.83902 194 46.2674 194 99.839Z" fill="#F4F4F4"/>
<mask id="mask0_3400_6113" style="mask-type:alpha" maskUnits="userSpaceOnUse" x="2" y="0" width="190" height="189">
<path d="M2.83984 94.161C2.83984 146.165 44.9972 188.322 97.0008 188.322C149.004 188.322 191.162 146.165 191.162 94.161C191.162 42.1573 149.004 1.52588e-05 97.0008 1.52588e-05C44.9972 1.52588e-05 2.83984 42.1573 2.83984 94.161Z" fill="#F4F4F4"/>
</mask>
<g mask="url(#mask0_3400_6113)">
<path d="M156.53 75.4767C156.53 75.4767 150.6 76.5641 147.987 77.0108C145.373 77.4579 133.299 73.3449 130.49 71.8677C127.681 70.3904 125.511 67.285 127.633 66.5594C127.633 66.5594 124.877 65.9675 123.938 63.8403C123 61.7132 128.083 61.4731 128.083 61.4731L128.031 60.6446C128.031 60.6446 125.2 61.8472 123.193 60.6008C121.186 59.354 121.558 56.602 125.501 54.587L123.91 52.625C123.91 52.625 120.836 51.6847 119.796 50.3346C118.757 48.9841 121.908 46.343 121.908 46.343L126.985 45.6432L153.361 58.1476L156.53 75.4767Z" fill="#DB8F8E"/>
<path d="M140.649 65.8499C139.362 66.7733 139.068 68.5648 139.991 69.8511C140.915 71.1379 142.706 71.4325 143.992 70.5091C145.279 69.5861 145.574 67.7947 144.65 66.5079C143.727 65.2212 141.936 64.9266 140.649 65.8499Z" fill="#141311"/>
<path d="M133.685 32.6237C132.532 33.451 132.268 35.0566 133.096 36.21C133.923 37.3631 135.528 37.627 136.682 36.7996C137.835 35.9719 138.098 34.3664 137.271 33.2133C136.444 32.0602 134.838 31.7963 133.685 32.6237Z" fill="#141311"/>
<path d="M150.284 72.4112C150.336 72.4834 150.384 72.4937 150.445 72.5072C150.569 72.5341 150.701 72.4841 150.777 72.3816C150.859 72.2702 150.86 72.1227 150.788 72.0125C150.566 71.3476 149.034 64.3193 148.04 59.6709C148.003 59.4954 147.831 59.3836 147.655 59.4212C147.48 59.4585 147.368 59.6313 147.406 59.8065C147.406 59.8065 148.069 62.9127 148.75 66.0228C149.854 71.0614 150.094 72.1473 150.284 72.4112Z" fill="#141311"/>
<path d="M149.006 72.9777C149.058 73.0503 149.106 73.0607 149.167 73.0737C149.292 73.1006 149.423 73.0507 149.499 72.9481C149.581 72.8367 149.582 72.6893 149.511 72.5794C149.289 71.9153 147.757 64.8862 146.763 60.2371C146.727 60.0616 146.553 59.9498 146.378 59.9874C146.203 60.0247 146.091 60.1975 146.128 60.3727C146.128 60.3727 146.792 63.4789 147.473 66.589C148.576 71.628 148.817 72.7142 149.006 72.9777Z" fill="#141311"/>
<path d="M137.607 48.8661C138.214 49.082 138.699 49.5829 139.322 49.7461C140.186 49.9723 141.061 49.5053 141.937 49.3332C143.448 49.0363 145.11 49.7135 145.965 50.9929C146.351 51.5694 146.574 52.2362 146.793 52.8938C146.979 53.4535 147.165 54.0127 147.351 54.5723C147.555 55.1846 147.654 56.0181 147.722 56.6691C147.778 57.195 147.455 57.8084 147.137 58.2017C146.617 58.8439 145.888 59.2726 145.202 59.7335C144.516 60.194 143.834 60.7318 143.498 61.4862C143.364 61.7838 143.29 62.1069 143.137 62.3949C142.984 62.683 142.726 62.945 142.401 62.978C142.285 62.9899 142.169 62.9719 142.053 62.9534C141.934 62.935 141.815 62.9165 141.695 62.9304C141.332 62.973 141.072 63.3022 140.914 63.6321C140.757 63.9621 140.652 64.3285 140.404 64.597C140.015 65.0191 139.381 65.091 138.807 65.089C138.423 65.0879 138.029 65.0637 137.678 64.9093C137.559 64.857 137.447 64.7856 137.346 64.7011C136.641 66.3024 135.665 68.577 135.508 69.5404L133.389 59.5576C133.389 59.5576 136.309 60.895 137.734 61.4589C137.844 61.1893 138.005 60.9323 138.227 60.7564C137.467 60.2286 136.302 59.2346 135.258 57.5679C135.042 57.2253 134.858 56.8958 134.7 56.5816C133.565 55.4427 132.056 53.8721 132.056 53.8721C132.056 53.8721 131.776 52.9245 131.898 52.8865C131.983 52.86 133.262 54.1268 134.033 54.9008C133.679 53.6613 133.787 52.9172 133.837 52.9438C133.917 52.986 134.19 55.0371 136.455 57.3578C138.013 58.9538 139.778 59.9513 140.729 60.4187C141.067 60.1599 141.225 59.7009 141.493 59.3552C141.795 58.968 142.239 58.726 142.636 58.4387C143.351 57.9217 143.958 57.1788 144.071 56.3046C144.183 55.4304 143.664 54.4483 142.804 54.2543C142.582 54.2044 142.349 54.2055 142.117 54.2067C141.775 54.2086 141.437 54.2105 141.143 54.048C140.648 53.7742 140.487 53.15 140.138 52.7045C139.585 52 138.626 51.8018 137.793 51.4761C136.959 51.1504 136.087 50.449 136.209 49.5621C136.239 49.3443 136.335 49.1312 136.5 48.986C136.793 48.7294 137.24 48.7359 137.607 48.8661Z" fill="#141311"/>
<path d="M143.293 45.5049C143.367 45.6082 143.498 45.6623 143.63 45.632C143.804 45.5917 143.913 45.4173 143.873 45.2425L141.016 32.9094C140.975 32.7339 140.801 32.626 140.627 32.6663C140.452 32.707 140.343 32.8814 140.384 33.0557L143.24 45.3889C143.25 45.4323 143.269 45.4711 143.293 45.5049Z" fill="#141311"/>
<path d="M141.886 45.8759C141.96 45.9792 142.092 46.0334 142.224 46.0031C142.398 45.9623 142.507 45.788 142.467 45.6136L139.61 33.2805C139.569 33.1049 139.395 32.997 139.22 33.0373C139.046 33.0777 138.937 33.2521 138.977 33.4268L141.834 45.7599C141.844 45.8029 141.862 45.8421 141.886 45.8759Z" fill="#141311"/>
<path d="M139.808 66.0658C138.588 67.0764 138.419 68.8839 139.429 70.1031C140.44 71.3226 142.247 71.492 143.467 70.4814C144.686 69.4708 144.855 67.6633 143.845 66.4441C142.834 65.2246 141.027 65.0552 139.808 66.0658Z" fill="#141311"/>
<path d="M130.551 33.4041C129.458 34.3095 129.307 35.9296 130.212 37.0224C131.118 38.1151 132.738 38.2669 133.831 37.3615C134.923 36.4558 135.075 34.8357 134.17 33.7429C133.264 32.6501 131.644 32.4984 130.551 33.4041Z" fill="#141311"/>
<path d="M149.881 71.9414C149.938 72.0098 149.987 72.0167 150.049 72.0259C150.175 72.044 150.302 71.9852 150.371 71.8777C150.445 71.7605 150.435 71.6138 150.357 71.5085C150.089 70.8606 148.072 63.956 146.758 59.3878C146.708 59.2154 146.528 59.1159 146.356 59.1654C146.184 59.215 146.084 59.3951 146.134 59.5672C146.134 59.5672 147.012 62.6197 147.908 65.6748C149.358 70.6247 149.674 71.6914 149.881 71.9414Z" fill="#141311"/>
<path d="M148.651 72.5948C148.707 72.6635 148.756 72.6704 148.818 72.6793C148.944 72.6977 149.072 72.6389 149.14 72.5314C149.215 72.4142 149.205 72.2671 149.127 72.1623C148.859 71.5154 146.842 64.6097 145.527 60.0412C145.479 59.8683 145.298 59.7689 145.126 59.8188C144.953 59.8683 144.854 60.0481 144.903 60.2202C144.903 60.2202 145.782 63.273 146.677 66.3282C148.128 71.2785 148.444 72.3451 148.651 72.5948Z" fill="#141311"/>
<path d="M135.593 49.3347C136.214 49.508 136.731 49.9739 137.365 50.0933C138.243 50.2589 139.083 49.7323 139.945 49.4995C141.431 49.0985 143.137 49.6585 144.079 50.8754C144.504 51.4235 144.773 52.0734 145.036 52.7141C145.261 53.2595 145.485 53.8045 145.71 54.3496C145.956 54.9461 146.113 55.7711 146.226 56.4156C146.318 56.9365 146.039 57.5706 145.749 57.9855C145.275 58.6622 144.577 59.1405 143.925 59.6478C143.273 60.1549 142.63 60.7387 142.347 61.5146C142.234 61.8211 142.183 62.1483 142.05 62.4464C141.918 62.7445 141.678 63.0237 141.357 63.079C141.242 63.099 141.125 63.089 141.008 63.079C140.887 63.0687 140.767 63.0587 140.649 63.0809C140.29 63.1485 140.053 63.495 139.919 63.8349C139.784 64.1752 139.705 64.5478 139.477 64.8332C139.117 65.2811 138.49 65.3967 137.917 65.4351C137.535 65.4605 137.14 65.4639 136.779 65.3341C136.656 65.2903 136.539 65.2269 136.434 65.1497C135.841 66.796 135.026 69.1332 134.936 70.1046L132.128 60.2935C132.128 60.2935 135.134 61.4251 136.595 61.8883C136.686 61.6118 136.829 61.344 137.038 61.1531C136.243 60.6792 135.012 59.7688 133.854 58.1787C133.616 57.8518 133.409 57.5361 133.229 57.2334C132.018 56.1763 130.403 54.7145 130.403 54.7145C130.403 54.7145 130.058 53.7888 130.177 53.7423C130.261 53.71 131.624 54.8846 132.447 55.6033C132.008 54.3914 132.063 53.6413 132.116 53.6643C132.199 53.7012 132.614 55.7285 135.034 57.886C136.699 59.3698 138.53 60.2421 139.511 60.6423C139.83 60.3604 139.955 59.8918 140.199 59.528C140.473 59.1209 140.899 58.8489 141.276 58.5343C141.952 57.9689 142.507 57.1858 142.558 56.3058C142.61 55.4258 142.024 54.4821 141.152 54.3484C140.928 54.3142 140.695 54.3315 140.464 54.3488C140.123 54.3745 139.786 54.3999 139.481 54.2585C138.968 54.0196 138.763 53.4081 138.384 52.9879C137.784 52.3234 136.814 52.1921 135.96 51.9255C135.105 51.6585 134.186 51.0194 134.247 50.1264C134.262 49.907 134.342 49.6873 134.497 49.5314C134.771 49.2548 135.218 49.2303 135.593 49.3347Z" fill="#141311"/>
<path d="M141.04 45.586C141.121 45.6839 141.256 45.7289 141.385 45.6893C141.556 45.6371 141.653 45.4554 141.6 45.2841L137.893 33.1791C137.84 33.007 137.659 32.9114 137.488 32.964C137.316 33.0167 137.22 33.1979 137.272 33.3692L140.979 45.4738C140.993 45.5164 141.013 45.5541 141.04 45.586Z" fill="#141311"/>
<path d="M139.664 46.0533C139.746 46.1513 139.881 46.1962 140.01 46.1567C140.181 46.1044 140.277 45.9227 140.225 45.7514L136.518 33.6469C136.465 33.4744 136.284 33.3792 136.112 33.4314C135.941 33.484 135.845 33.6653 135.897 33.8366L139.604 45.9416C139.617 45.9838 139.638 46.0215 139.664 46.0533Z" fill="#141311"/>
<path d="M137.529 32.1631L139.39 31.5889L137.431 25.2397L135.57 25.8139L137.529 32.1631Z" fill="#141311"/>
<path d="M139.181 66.3036C138.027 67.3887 137.971 69.2032 139.056 70.3566C140.141 71.5105 141.956 71.5662 143.109 70.4811C144.263 69.3964 144.319 67.5815 143.234 66.428C142.149 65.2746 140.334 65.2189 139.181 66.3036Z" fill="#2E302A"/>
<path d="M127.891 34.2861C126.857 35.2582 126.807 36.8849 127.78 37.9185C128.752 38.9525 130.378 39.0024 131.412 38.0303C132.446 37.0577 132.496 35.4315 131.524 34.3975C130.552 33.3635 128.925 33.3135 127.891 34.2861Z" fill="#2E302A"/>
<path d="M149.59 71.5362C149.651 71.6011 149.699 71.6049 149.762 71.6099C149.889 71.6203 150.012 71.5539 150.074 71.4421C150.141 71.3207 150.122 71.1744 150.037 71.0745C149.729 70.445 147.283 63.6798 145.685 59.2031C145.625 59.0341 145.439 58.9461 145.27 59.0064C145.101 59.0667 145.013 59.2526 145.074 59.4213C145.074 59.4213 146.142 62.413 147.227 65.4059C148.985 70.2552 149.367 71.3 149.59 71.5362Z" fill="#2E302A"/>
<path d="M148.414 72.2656C148.475 72.3305 148.524 72.3343 148.586 72.3393C148.713 72.3497 148.837 72.2829 148.898 72.1715C148.965 72.0497 148.946 71.9038 148.861 71.8039C148.554 71.1751 146.108 64.4096 144.509 59.9321C144.45 59.7627 144.264 59.6751 144.095 59.7354C143.926 59.7957 143.838 59.9817 143.898 60.1503C143.898 60.1503 144.966 63.142 146.051 66.135C147.81 70.9846 148.191 72.0294 148.414 72.2656Z" fill="#2E302A"/>
<path d="M133.923 49.8698C134.554 50.0039 135.1 50.436 135.739 50.5159C136.626 50.6261 137.431 50.0477 138.277 49.7615C139.735 49.2679 141.472 49.72 142.489 50.8754C142.947 51.3959 143.256 52.0273 143.56 52.6507C143.818 53.1808 144.076 53.7105 144.335 54.2405C144.617 54.8205 144.826 55.634 144.979 56.2701C145.104 56.784 144.865 57.4347 144.601 57.8668C144.171 58.572 143.504 59.0929 142.885 59.6402C142.267 60.1876 141.661 60.8102 141.427 61.6026C141.334 61.9152 141.303 62.2448 141.189 62.5505C141.076 62.8567 140.854 63.1501 140.537 63.2258C140.424 63.2527 140.306 63.2504 140.189 63.2477C140.068 63.245 139.947 63.2423 139.831 63.2719C139.477 63.3621 139.262 63.7224 139.15 64.0704C139.037 64.4184 138.981 64.7952 138.771 65.0944C138.44 65.5638 137.822 65.7186 137.252 65.7927C136.872 65.8423 136.478 65.8703 136.109 65.7632C135.985 65.7271 135.864 65.6714 135.753 65.6011C135.265 67.2811 134.599 69.6649 134.57 70.6401L131.153 61.0241C131.153 61.0241 134.223 61.9648 135.711 62.3358C135.784 62.0543 135.91 61.7781 136.106 61.5742C135.283 61.1513 133.998 60.3197 132.742 58.8052C132.484 58.4941 132.258 58.1918 132.059 57.9014C130.784 56.9219 129.081 55.5641 129.081 55.5641C129.081 55.5641 128.678 54.6619 128.795 54.6081C128.876 54.5708 130.31 55.6575 131.177 56.3231C130.662 55.1412 130.67 54.3892 130.724 54.4091C130.809 54.4403 131.351 56.4376 133.901 58.4391C135.656 59.8157 137.538 60.5717 138.542 60.9093C138.843 60.6081 138.938 60.1326 139.159 59.7543C139.406 59.331 139.816 59.0326 140.172 58.6949C140.811 58.0884 141.315 57.2722 141.312 56.3907C141.308 55.5092 140.664 54.6039 139.786 54.5251C139.56 54.5052 139.329 54.5367 139.101 54.5685C138.762 54.6154 138.425 54.6623 138.112 54.5401C137.585 54.3339 137.343 53.7366 136.938 53.341C136.298 52.7153 135.321 52.645 134.452 52.4322C133.582 52.2198 132.625 51.6394 132.629 50.744C132.63 50.5243 132.697 50.3 132.841 50.1349C133.098 49.8418 133.542 49.7892 133.923 49.8698Z" fill="#2E302A"/>
<path d="M139.125 45.7872C139.212 45.8798 139.35 45.9163 139.476 45.8687C139.644 45.8053 139.729 45.6182 139.665 45.4508L135.207 33.602C135.143 33.4334 134.956 33.3493 134.788 33.4127C134.621 33.4757 134.536 33.6627 134.599 33.8306L139.058 45.6789C139.073 45.7204 139.097 45.7569 139.125 45.7872Z" fill="#2E302A"/>
<path d="M137.777 46.3399C137.865 46.4325 138.002 46.469 138.128 46.4213C138.296 46.358 138.381 46.1709 138.318 46.0031L133.859 34.1547C133.795 33.9857 133.608 33.9019 133.441 33.9649C133.273 34.0283 133.188 34.2154 133.251 34.3832L137.71 46.2316C137.726 46.2731 137.749 46.3096 137.777 46.3399Z" fill="#2E302A"/>
<path d="M138.292 66.6623C137.244 67.8496 137.357 69.6618 138.544 70.7096C139.731 71.7574 141.543 71.6445 142.591 70.4572C143.639 69.27 143.526 67.4578 142.339 66.41C141.152 65.3621 139.34 65.4751 138.292 66.6623Z" fill="#465043"/>
<path d="M149.155 70.9054C149.222 70.9642 149.271 70.9638 149.333 70.963C149.461 70.9615 149.578 70.8835 149.628 70.7668C149.684 70.6396 149.652 70.4956 149.558 70.4042C149.192 69.8057 146.129 63.2971 144.123 58.9879C144.047 58.8254 143.854 58.7548 143.691 58.8308C143.529 58.9065 143.459 59.0997 143.534 59.2618C143.534 59.2618 144.875 62.1414 146.233 65.021C148.434 69.6859 148.912 70.6907 149.155 70.9054Z" fill="#465043"/>
<path d="M148.042 71.7417C148.109 71.8005 148.158 71.8001 148.22 71.7993C148.348 71.7978 148.464 71.7198 148.516 71.603C148.571 71.4755 148.539 71.3319 148.444 71.2404C148.08 70.6432 145.017 64.1334 143.009 59.8238C142.935 59.6609 142.741 59.5906 142.578 59.6667C142.416 59.742 142.345 59.9356 142.421 60.0977C142.421 60.0977 143.762 62.9773 145.12 65.8569C147.321 70.5222 147.799 71.527 148.042 71.7417Z" fill="#465043"/>
<path d="M147.771 49.6735L147.719 49.4896C147.759 49.4823 147.799 49.4754 147.838 49.4684L147.878 49.6542C147.843 49.6607 147.807 49.6669 147.771 49.6735Z" fill="#141210"/>
<path d="M146.832 60.1268C146.085 59.1992 145.641 58.5651 145.498 58.3561L144.896 58.2939L144.802 58.0938L145.417 58.1564C145.415 58.1756 145.416 58.1956 145.42 58.2155C145.439 58.305 145.518 58.3661 145.606 58.3661C145.619 58.3661 145.632 58.365 145.645 58.3619C145.668 58.3573 145.691 58.3523 145.714 58.3473C145.856 58.5689 146.141 58.9968 146.575 59.5791L146.832 60.1268ZM126.969 54.8935C126.953 54.865 126.938 54.8366 126.923 54.8082C126.921 54.7994 126.92 54.7905 126.918 54.7813C126.935 54.8193 126.952 54.8554 126.969 54.8935Z" fill="#201B16"/>
<path d="M158.297 68.7215L158.308 68.397C158.368 68.4363 158.403 68.5076 158.392 68.5831C158.383 68.6436 158.347 68.6937 158.297 68.7215Z" fill="#9F2D2F"/>
<path d="M145.604 58.3661C145.516 58.3661 145.437 58.3048 145.418 58.215C145.414 58.195 145.413 58.175 145.415 58.1557L145.605 58.175C145.605 58.175 145.641 58.2347 145.713 58.3472C145.69 58.3522 145.667 58.3573 145.643 58.3619C145.63 58.365 145.617 58.3661 145.604 58.3661Z" fill="#201B16"/>
<path d="M137.453 58.5294C137.395 58.5294 137.337 58.5032 137.3 58.4527C137.282 58.4284 137.27 58.4006 137.266 58.3725C137.328 58.3613 137.391 58.3498 137.454 58.3378C137.454 58.3378 137.554 58.3502 137.731 58.3671C137.678 58.4083 137.623 58.45 137.566 58.492C137.532 58.5174 137.492 58.5294 137.453 58.5294Z" fill="#3F3427"/>
<path d="M79.7109 102.156L80.41 95.1345C80.8955 94.9605 81.3829 94.8034 81.8692 94.6694L81.6322 101.302C80.9819 101.571 80.3405 101.858 79.7109 102.156Z" fill="#FAC99E"/>
<path d="M65.2962 110.546C64.4642 110.546 63.6062 110.536 62.7688 110.521C62.6855 110.519 62.6025 110.518 62.5195 110.516C62.7173 109.848 62.9228 109.197 63.1318 108.567C64.2192 108.751 65.2831 108.875 66.1781 108.875C68.7523 108.875 73.718 104.988 79.6988 102.156L79.3017 106.147C76.7985 106.938 74.4424 107.929 73.4841 108.622C71.9565 109.725 70.2584 110.32 70.2584 110.32C69.1848 110.489 67.3154 110.546 65.2962 110.546Z" fill="#FAC99E"/>
<path d="M79.3047 106.147L79.7018 102.156C80.3314 101.858 80.9728 101.571 81.6231 101.302L81.4722 105.526C80.7574 105.708 80.0249 105.919 79.3047 106.147Z" fill="#FAC99E"/>
<path d="M63.1392 108.567C62.3456 108.433 61.5394 108.267 60.7773 108.094C62.5139 104.887 64.1298 102.401 64.8346 101.35C65.2398 101.231 65.6961 101.105 66.1855 100.982C65.4084 102.615 64.2216 105.308 63.1392 108.567Z" fill="#FAC99E"/>
<path d="M62.5257 110.516C61.4644 110.496 60.4427 110.467 59.5547 110.438C59.9115 109.724 60.2714 109.033 60.6271 108.37C60.6766 108.278 60.7266 108.185 60.7761 108.094C61.5382 108.267 62.3444 108.433 63.138 108.567C62.929 109.197 62.7235 109.848 62.5257 110.516Z" fill="#FAC99E"/>
<path d="M37.4357 124.783C35.0139 124.288 32.6125 123.737 30.5323 123.151C23.406 121.147 8.26942 120.411 1.89453 119.958V86.4459C5.3837 87.6988 9.39065 89.715 13.7071 92.9422C13.7071 92.9422 22.6295 94.6706 27.9168 97.0567C33.209 99.4427 33.209 99.0605 36.1407 100.207C39.0724 101.355 41.1116 101.61 43.916 102.629C44.5605 102.864 46.0312 103.376 47.9144 104.025C47.1313 105.263 46.307 106.738 45.4454 108.493C42.988 113.505 40.1073 119.363 37.4357 124.783Z" fill="#F95031"/>
<path d="M59.5555 110.438C59.5551 110.438 59.5551 110.438 59.5547 110.438C59.9115 109.724 60.271 109.032 60.6263 108.37C60.6267 108.37 60.6275 108.37 60.6279 108.37C60.2722 109.033 59.9123 109.724 59.5555 110.438Z" fill="#293E9B"/>
<path d="M47.133 126.528C44.4428 126.1 40.916 125.498 37.4375 124.783C40.1091 119.363 42.9897 113.505 45.4472 108.492C46.3087 106.738 47.133 105.263 47.9162 104.025C51.604 105.296 56.8746 107.094 60.6242 108.37C60.2689 109.032 59.9094 109.724 59.5525 110.438C57.8064 110.38 56.5761 110.32 56.5761 110.32L47.133 126.528Z" fill="#F95031"/>
<path d="M154.938 125.113C153.588 122.407 149.471 122.172 144.923 119.204C138.859 115.251 142.224 111.521 142.224 111.521H142.225C142.029 112.105 142.079 112.843 142.444 113.72C143.722 116.778 148.562 117.286 149.964 118.181C150.041 118.229 150.124 118.278 150.213 118.327C150.37 118.493 150.553 118.655 150.767 118.806C150.8 118.829 150.838 118.84 150.876 118.84C150.935 118.84 150.993 118.812 151.031 118.76C151.038 118.75 151.043 118.74 151.048 118.729C152.44 119.339 154.31 119.974 154.966 120.709C155.028 120.992 155.073 121.283 155.09 121.576C155.096 121.677 155.179 121.754 155.279 121.754C155.283 121.754 155.287 121.754 155.29 121.754C155.297 121.754 155.303 121.753 155.308 121.752C155.41 122.431 155.472 123.351 155.279 124.196C155.206 124.518 155.096 124.83 154.938 125.113Z" fill="#9B582A"/>
<path d="M152.404 76.5744L131.004 75.81L131.443 63.5176L152.843 64.2816L152.404 76.5744Z" fill="white"/>
<path d="M150.364 74.8114L133.168 74.1972L133.193 73.4966L150.39 74.1108L150.364 74.8114Z" fill="#A6D4E8"/>
<path d="M112.93 128.108L109.332 127.98C106.739 126.458 98.7744 119.283 97.531 117.544C96.2577 115.759 94.7263 113.379 96.1706 112.101C97.1516 111.233 98.5466 111.011 99.7953 110.819C101.033 110.63 102.282 110.508 103.528 110.382C104.925 110.24 105.996 110.433 107.389 109.971C108.889 109.474 110.397 108.927 111.683 108.009C112.909 107.133 113.926 105.869 114.226 104.399C114.494 105.697 114.445 107.343 113.268 108.997C110.74 112.549 106.885 112.803 102.211 113.686C97.5376 114.569 105.183 122.582 109.098 124.196C110.537 124.789 111.873 125.384 113.006 125.969L112.93 128.108Z" fill="#EA9C5C"/>
<path d="M116.232 128.225L112.938 128.108L113.014 125.969C114.526 126.749 115.677 127.51 116.232 128.225Z" fill="#DBAC85"/>
<path d="M57.4898 130.049C52.8164 129.487 45.7812 128.836 45.7812 128.836L56.5687 110.32C56.5687 110.32 59.5179 110.464 62.7662 110.521C62.2354 113.917 60.6813 122.422 57.4898 130.049Z" fill="#FAC99E"/>
<path d="M115.02 128.195H115.019L109.52 128.081C109.52 128.081 109.52 128.081 109.52 128.081L115.021 128.193C115.021 128.194 115.02 128.195 115.02 128.195Z" fill="#468A72"/>
<path d="M113.766 129.565C112.753 129.56 109.563 128.102 109.52 128.081L115.018 128.195H115.019C114.734 128.858 114.306 129.565 113.766 129.565Z" fill="#FAC99E"/>
<path d="M106.972 135.505C106.958 135.505 106.944 135.504 106.93 135.501C106.927 135.5 106.913 135.497 106.887 135.49C106.954 135.383 106.973 135.317 106.973 135.317C106.973 135.317 107.032 135.349 107.14 135.404C107.107 135.466 107.042 135.505 106.972 135.505Z" fill="#468A72"/>
<path d="M96.4312 136.979C96.4185 136.979 96.4054 136.978 96.3923 136.975C96.3669 136.97 96.3418 136.965 96.3164 136.959C96.3946 136.851 96.4305 136.787 96.4305 136.787C96.4941 136.796 96.5569 136.805 96.6193 136.814C96.6189 136.819 96.6182 136.823 96.617 136.827C96.5985 136.917 96.5195 136.979 96.4312 136.979Z" fill="#468A72"/>
<path d="M85.5607 141.017C85.5445 141.017 85.5283 141.015 85.5118 141.01L85.4682 141C85.4574 140.997 85.4443 140.994 85.4297 140.99C85.5164 140.888 85.5607 140.828 85.5607 140.828C85.5607 140.828 85.6231 140.857 85.7372 140.898C85.7083 140.97 85.6374 141.017 85.5607 141.017Z" fill="#468A72"/>
<path d="M40.4771 133.69C40.4771 135.402 39.0219 136.79 37.2269 136.79C35.4317 136.79 33.9766 135.402 33.9766 133.69C33.9766 131.979 35.4317 130.591 37.2269 130.591C39.0219 130.591 40.4771 131.979 40.4771 133.69Z" fill="#FF6A3A"/>
<path d="M126.795 60.418L122.757 60.2736C122.264 59.8246 122.001 59.2526 122.001 58.6208C122.001 57.5503 122.759 56.3081 124.436 55.2038L126.795 60.418ZM123.15 52.3599C122.17 51.9897 120.507 51.258 119.796 50.3346C119.649 50.1433 119.586 49.9263 119.586 49.6943C119.586 48.938 120.259 48.0246 120.881 47.3428L123.15 52.3599Z" fill="#FAC99E"/>
<path d="M135.656 81.0807L154.903 74.7277L143.588 20.8195L124.238 24.6159L135.656 81.0807Z" fill="#3C4838"/>
<path d="M142.061 22.8164C142.061 22.8164 125.954 25.9834 125.86 25.8516C125.765 25.7195 136.747 78.2357 136.747 78.2357L153.019 73.3515L142.061 22.8164ZM141.311 23.9557L151.876 72.6774L137.483 76.9977C134.068 60.6635 128.143 32.2772 127.011 26.6767C127.427 26.6064 127.948 26.5115 128.606 26.3909C129.957 26.1443 131.832 25.7905 134.179 25.34C137.02 24.7946 139.881 24.2357 141.311 23.9557Z" fill="#141311"/>
<path d="M140.72 31.8705L142.616 31.4272L141.104 24.9574L139.207 25.4007L140.72 31.8705Z" fill="#141311"/>
<path d="M135.893 81.6062L154.652 73.9307L139.617 20.9394L120.578 26.0721L135.893 81.6062Z" fill="#53614F"/>
<path d="M138.236 23.038C138.236 23.038 122.389 27.3169 122.286 27.1917C122.182 27.0669 136.788 78.6924 136.788 78.6924L152.681 72.6889L138.236 23.038ZM137.568 24.2268L151.494 72.0962L137.436 77.4064C132.893 61.3491 125.01 33.4434 123.491 27.935C123.901 27.8362 124.414 27.7049 125.063 27.539C126.393 27.199 128.239 26.7158 130.549 26.1032C133.345 25.3619 136.16 24.6056 137.568 24.2268Z" fill="#141311"/>
<path d="M136.251 82.0587L154.491 73.2224L136.164 21.2781L117.484 27.5939L136.251 82.0587Z" fill="#7D9175"/>
<path d="M134.909 23.4595C134.909 23.4595 119.362 28.7232 119.251 28.6049C119.14 28.487 136.953 79.095 136.953 79.095L152.438 72.107L134.909 23.4595ZM134.316 24.6878L151.217 71.59L137.519 77.771C131.979 62.0301 122.362 34.6733 120.501 29.2709C120.903 29.1469 121.407 28.9836 122.044 28.7774C123.35 28.3545 125.162 27.7568 127.43 27.0005C130.174 26.0852 132.936 25.1541 134.316 24.6878Z" fill="#2E302A"/>
<path d="M134.782 32.6106L136.604 31.9208L134.251 25.7072L132.43 26.397L134.782 32.6106Z" fill="#2E302A"/>
<path d="M136.839 82.6217L154.18 72.1307L131.111 22.1116L113.098 30.1335L136.839 82.6217Z" fill="#99B589"/>
<path d="M130.063 24.3997C130.063 24.3997 115.071 31.0839 114.95 30.9763C114.828 30.8691 137.262 79.6054 137.262 79.6054L152.032 71.2105L130.063 24.3997ZM129.587 25.6776L150.768 70.8087L137.703 78.2346C130.726 63.0756 118.611 36.7298 116.256 31.5236C116.646 31.3623 117.132 31.1534 117.747 30.8887C119.009 30.3467 120.757 29.5832 122.945 28.6194C125.592 27.4537 128.256 26.2699 129.587 25.6776Z" fill="#465043"/>
<path d="M124.088 35.8302C123.149 36.8945 123.251 38.5185 124.315 39.4576C125.379 40.3967 127.003 40.2953 127.942 39.2314C128.881 38.1674 128.78 36.5434 127.715 35.6043C126.651 34.6652 125.027 34.7662 124.088 35.8302Z" fill="#465043"/>
<path d="M131.534 50.7875C132.175 50.8624 132.759 51.2422 133.403 51.2622C134.296 51.2899 135.044 50.6388 135.86 50.2754C137.266 49.649 139.037 49.9374 140.157 50.9937C140.662 51.4696 141.028 52.0696 141.388 52.6619C141.694 53.1654 142.001 53.6694 142.307 54.1729C142.642 54.7245 142.925 55.515 143.137 56.1338C143.309 56.6342 143.131 57.3045 142.909 57.7589C142.546 58.501 141.93 59.0817 141.365 59.684C140.799 60.2863 140.255 60.9627 140.095 61.7731C140.032 62.0931 140.031 62.4242 139.947 62.7391C139.862 63.0541 139.668 63.3672 139.36 63.472C139.136 63.5481 138.884 63.5039 138.661 63.5834C138.317 63.7059 138.136 64.085 138.056 64.4419C137.976 64.7987 137.956 65.179 137.774 65.4966C137.489 65.9944 136.887 66.206 136.327 66.3328C135.953 66.4173 135.564 66.4818 135.187 66.4096C135.059 66.385 134.934 66.3409 134.817 66.2809C134.487 67.999 134.044 70.4342 134.106 71.4079L129.811 62.1511C129.811 62.1511 132.956 62.8025 134.471 63.0338C134.518 62.7464 134.618 62.4599 134.794 62.239C133.936 61.8941 132.579 61.1855 131.188 59.7942C130.902 59.5081 130.649 59.2281 130.424 58.9573C129.064 58.1007 127.242 56.9066 127.242 56.9066C127.242 56.9066 126.757 56.0458 126.868 55.9813C126.945 55.9367 128.474 56.8854 129.399 57.4677C128.777 56.3389 128.716 55.5895 128.771 55.6041C128.858 55.6271 129.583 57.5657 132.308 59.3218C134.183 60.5298 136.127 61.1075 137.158 61.3506C137.43 61.023 137.48 60.5406 137.666 60.1434C137.873 59.6986 138.252 59.3637 138.575 58.9949C139.156 58.3316 139.582 57.4716 139.497 56.5943C139.411 55.717 138.685 54.8758 137.804 54.8789C137.241 54.8808 136.68 55.2042 136.139 55.0487C135.595 54.8923 135.298 54.32 134.858 53.964C134.163 53.4005 133.184 53.4212 132.299 53.2899C131.413 53.1589 130.406 52.6699 130.327 51.7784C130.308 51.5591 130.353 51.3298 130.482 51.1516C130.71 50.8362 131.147 50.7425 131.534 50.7875Z" fill="#465043"/>
<path d="M136.336 46.24C136.432 46.3241 136.572 46.3476 136.693 46.2884C136.855 46.2101 136.922 46.0157 136.843 45.8548L131.304 34.4712C131.225 34.3091 131.031 34.243 130.87 34.321C130.709 34.3997 130.642 34.5941 130.72 34.755L136.26 46.1386C136.279 46.1786 136.305 46.2124 136.336 46.24Z" fill="#465043"/>
<path d="M135.048 46.9145C135.143 46.9986 135.283 47.0224 135.404 46.9633C135.566 46.8849 135.633 46.6906 135.554 46.5293L130.015 35.146C129.936 34.9836 129.742 34.9179 129.581 34.9959C129.42 35.0742 129.353 35.2686 129.431 35.4299L134.97 46.8131C134.99 46.8531 135.017 46.8872 135.048 46.9145Z" fill="#465043"/>
<path d="M130.786 33.5233L132.536 32.6675L129.616 26.6993L127.867 27.5547L130.786 33.5233Z" fill="#465043"/>
<path d="M126.969 61.1651H147.696V54.8934H126.969V61.1651Z" fill="#495B43"/>
<path d="M147.316 61.1512L146.222 61.1121L144.899 58.2939L145.501 58.3561C145.644 58.5651 146.087 59.1992 146.835 60.1268L147.316 61.1512ZM128.453 58.1145C128.233 57.8676 128.03 57.5964 127.846 57.2979C127.947 57.3636 128.057 57.4358 128.176 57.5127C128.268 57.7132 128.36 57.914 128.453 58.1145ZM127.662 56.3953C127.531 56.3173 127.409 56.2467 127.303 56.1867C127.145 55.7677 127.018 55.3098 126.926 54.8082C126.941 54.8366 126.956 54.865 126.972 54.8935C127.202 55.392 127.432 55.8933 127.662 56.3953Z" fill="#252921"/>
<path d="M143.654 59.5188C143.577 59.3533 143.534 59.2618 143.534 59.2618C143.459 59.0997 143.529 58.9065 143.691 58.8309C143.736 58.8101 143.782 58.8001 143.829 58.8001C143.951 58.8001 144.068 58.8697 144.123 58.988C144.18 59.1116 144.238 59.2365 144.297 59.3632C144.294 59.364 144.057 59.4255 143.654 59.5188Z" fill="#252921"/>
<path d="M142.445 59.7808C142.477 59.7326 142.523 59.6925 142.579 59.6663C142.624 59.6455 142.67 59.6355 142.717 59.6355C142.78 59.6355 142.841 59.654 142.894 59.6879C142.752 59.7179 142.602 59.7492 142.445 59.7808Z" fill="#252921"/>
<path d="M134.538 60.491C133.493 60.4406 132.385 60.2905 131.342 59.9432C131.291 59.8945 131.241 59.8445 131.19 59.7942C130.904 59.5081 130.651 59.228 130.426 58.9573C129.69 58.4936 128.818 57.9313 128.174 57.5127C128.055 57.4358 127.945 57.3636 127.844 57.2979C127.637 56.9626 127.454 56.5927 127.301 56.1867C127.407 56.2467 127.529 56.3173 127.66 56.3953C128.194 56.7118 128.89 57.1458 129.401 57.4677C129.325 57.329 129.257 57.1962 129.196 57.0694C129.552 57.3064 129.952 57.5465 130.401 57.7892C130.889 58.2809 131.514 58.809 132.31 59.3218C133.063 59.8065 133.826 60.1898 134.538 60.491ZM137.557 60.4276C137.59 60.3304 137.625 60.2348 137.668 60.1434C137.875 59.6986 138.254 59.3636 138.577 58.9949C138.677 58.8804 138.773 58.7606 138.861 58.6358C139.14 58.6473 139.446 58.655 139.771 58.655C140.619 58.6542 141.587 58.6035 142.494 58.4295C142.158 58.8758 141.751 59.2749 141.367 59.684C141.258 59.8 141.15 59.9187 141.045 60.0404C140.125 60.1941 139.108 60.33 138.133 60.3896C137.959 60.4003 137.766 60.4138 137.557 60.4276Z" fill="#252921"/>
<path d="M193.94 75.9787V103.778C185.26 96.8523 163.936 79.7126 163.936 79.7126C163.936 79.7126 163.079 79.4245 161.464 78.9013C160.558 78.6094 159.406 78.2457 158.038 77.8136C154.224 76.6121 147.982 77.01 147.982 77.01L154.899 74.7281L153.148 66.3743C151.006 64.6232 149.346 62.9174 148.137 61.5223C146.416 59.5361 145.601 58.1756 145.601 58.1756L143.517 57.9632C141.155 58.7971 137.448 58.3385 137.448 58.3385C133.81 59.0283 131.395 58.0846 131.395 58.0846C123.867 54.4725 127.76 51.4516 127.76 51.4516C128.685 51.5461 132.123 52.5582 135.637 52.3384C139.146 52.1184 146.579 49.5867 149.104 49.5069C151.628 49.4273 161.305 54.6469 163.973 56.8601C166.642 59.0702 170.618 62.5763 183.266 69.9902C186.545 71.9119 190.248 73.9776 193.94 75.9787Z" fill="#FAC99E"/>
<path d="M161.467 78.9013C160.561 78.6094 159.408 78.2457 158.04 77.8136C158.016 77.8059 157.992 77.7982 157.967 77.7909L158.291 68.7215C158.341 68.6938 158.377 68.6439 158.386 68.5836C158.397 68.5083 158.362 68.4373 158.303 68.3981L158.547 61.5526L157.699 61.5223H161.467V78.9013Z" fill="#EA9C5C"/>
<path d="M147.88 49.6543L147.84 49.4692C148.329 49.3827 148.755 49.3286 149.103 49.3171C149.105 49.3171 149.107 49.3171 149.109 49.3171C149.211 49.3171 149.295 49.3977 149.298 49.5003C149.298 49.5037 149.298 49.5068 149.298 49.5099C149.253 49.5072 149.209 49.506 149.167 49.506C149.147 49.506 149.128 49.5064 149.109 49.5068C148.777 49.5172 148.361 49.5702 147.88 49.6543Z" fill="#332920"/>
<path d="M146.286 49.9855L146.223 49.8057C146.278 49.793 146.334 49.7804 146.389 49.7677C146.867 49.659 147.313 49.5645 147.719 49.4904L147.771 49.6736C147.323 49.7546 146.823 49.8614 146.286 49.9855Z" fill="#47362D"/>
<path d="M144.608 50.393L144.543 50.2148C145.128 50.0673 145.692 49.9282 146.221 49.8057L146.284 49.9854C145.757 50.1072 145.193 50.2455 144.608 50.393Z" fill="#6A5041"/>
<path d="M144.206 50.4967L144.125 50.3217C144.268 50.2855 144.41 50.2493 144.551 50.2138L144.616 50.3927C144.48 50.427 144.344 50.4616 144.206 50.4967Z" fill="#271E19"/>
<path d="M126.919 54.7813C126.856 54.6438 126.793 54.5063 126.73 54.3692C126.618 54.0542 126.57 53.7546 126.57 53.475C126.571 52.8005 126.843 52.2574 127.109 51.886C127.377 51.5138 127.641 51.3083 127.65 51.3006C127.684 51.2748 127.725 51.261 127.767 51.261C127.773 51.261 127.78 51.2614 127.786 51.2618C128.23 51.309 129.132 51.5334 130.328 51.7496C130.328 51.7592 130.329 51.7688 130.33 51.7784C130.335 51.8364 130.344 51.8929 130.357 51.9474C129.127 51.7269 128.187 51.4946 127.766 51.4515C127.766 51.4515 126.515 52.4226 126.803 53.9213C126.831 54.2213 126.87 54.5074 126.919 54.7813ZM140.556 51.422C140.511 51.3678 140.466 51.314 140.419 51.2618C140.524 51.2361 140.63 51.2099 140.736 51.1842C140.981 51.1235 141.227 51.0621 141.474 50.9998L141.556 51.1735C141.221 51.258 140.887 51.3413 140.556 51.422ZM142.517 50.9288L142.435 50.7552C143.006 50.6092 143.572 50.4629 144.123 50.3223L144.204 50.4967C143.653 50.6365 143.087 50.7828 142.517 50.9288Z" fill="#81644B"/>
<path d="M126.921 54.8082C126.842 54.6592 126.777 54.5124 126.727 54.3692C126.79 54.5063 126.853 54.6438 126.916 54.7813C126.917 54.7905 126.919 54.7994 126.921 54.8082ZM141.552 51.1735L141.471 50.9998C141.791 50.9192 142.112 50.837 142.432 50.7552L142.514 50.9288C142.194 51.0106 141.873 51.0928 141.552 51.1735Z" fill="#3D2E25"/>
<path d="M134.616 52.3696C133.059 52.3696 131.565 52.1645 130.353 51.9474C130.341 51.8929 130.332 51.8364 130.327 51.7784C130.326 51.7688 130.325 51.7592 130.324 51.7496C130.337 51.7519 130.349 51.7539 130.361 51.7562C131.572 51.9743 133.067 52.181 134.618 52.181C134.952 52.181 135.289 52.1714 135.626 52.1502C136.847 52.0746 138.582 51.7082 140.416 51.2618C140.462 51.3141 140.508 51.3678 140.552 51.422C138.681 51.8791 136.905 52.2589 135.639 52.3385C135.296 52.36 134.955 52.3696 134.616 52.3696Z" fill="#3D2E25"/>
<path d="M147.843 61.1701L147.699 61.1651C147.376 60.7887 147.088 60.441 146.835 60.1269L146.578 59.5791C146.911 60.0262 147.332 60.5643 147.843 61.1701ZM134.824 58.7802C134.824 58.7802 134.824 58.7802 134.824 58.7802C132.669 58.7802 131.349 58.2678 131.333 58.2617L131.32 58.2559C130.994 58.0992 130.688 57.9436 130.403 57.7892C130.246 57.6317 130.103 57.4773 129.974 57.3291C130.397 57.5776 130.872 57.8295 131.403 58.0846C131.403 58.0846 132.698 58.5908 134.82 58.5908C135.546 58.5908 136.368 58.5317 137.268 58.373C137.273 58.4011 137.284 58.4287 137.303 58.4529C137.339 58.5033 137.397 58.5294 137.455 58.5294C137.494 58.5294 137.534 58.5175 137.568 58.4921C137.624 58.4503 137.679 58.4088 137.732 58.3677C137.999 58.3934 138.444 58.4295 138.989 58.4495C138.949 58.5125 138.907 58.5747 138.864 58.6358C138.125 58.6047 137.589 58.5463 137.461 58.5317C136.489 58.7134 135.602 58.7802 134.824 58.7802ZM142.496 58.4295C142.551 58.3558 142.604 58.2809 142.655 58.204C142.958 58.1395 143.25 58.06 143.525 57.9632L144.805 58.0938L144.899 58.2939L143.548 58.1545C143.215 58.2693 142.861 58.3592 142.496 58.4295ZM129.198 57.0694C128.486 56.5958 127.95 56.1349 127.553 55.6909C127.309 55.4189 127.118 55.1524 126.972 54.8935C126.955 54.8554 126.938 54.8193 126.921 54.7813C126.871 54.5075 126.832 54.2213 126.805 53.9213C126.96 54.7299 127.563 55.692 129.051 56.7383C129.094 56.8428 129.143 56.9534 129.198 57.0694Z" fill="#3F3427"/>
<path d="M139.769 58.655C139.444 58.655 139.138 58.6473 138.86 58.6358C138.903 58.5747 138.945 58.5125 138.985 58.4495C139.231 58.4587 139.497 58.4644 139.778 58.4644C140.677 58.4644 141.713 58.4049 142.651 58.204C142.6 58.2809 142.547 58.3557 142.492 58.4295C141.585 58.6035 140.617 58.6542 139.769 58.655ZM130.399 57.7892C129.95 57.5465 129.55 57.3064 129.194 57.0694C129.139 56.9534 129.09 56.8428 129.047 56.7383C129.323 56.9327 129.63 57.1293 129.97 57.3291C130.099 57.4773 130.242 57.6317 130.399 57.7892Z" fill="#201B16"/>
<path d="M83.8546 112.888C83.3702 113.377 82.8041 117.288 78.1695 117.563C77.6087 117.599 76.9815 117.578 76.2932 117.492C72.393 117.002 65.9128 115.636 61.4719 114.647C58.6575 114.025 56.6641 113.55 56.6641 113.55L59.7841 107.86L63.0371 101.931C63.0371 101.931 64.3883 101.431 66.1829 100.983C66.9733 100.784 67.8502 100.595 68.7321 100.462C71.0521 100.121 75.6763 96.8119 80.4027 95.1346C81.555 94.7217 82.7176 94.4055 83.8546 94.2577C83.8546 94.2577 83.936 97.0209 84.0124 100.416C84.1146 105.714 84.1857 112.556 83.8546 112.888Z" fill="#FAC99E"/>
<path d="M54.4952 98.8054C54.0773 98.6676 53.6133 98.5404 53.1136 98.4229C49.3817 97.4949 43.6405 96.8423 38.6899 95.4914C33.0816 93.9619 27.3457 90.5204 22.2472 89.4138C17.1488 88.3076 13.4522 84.402 6.69668 80.7058C5.1798 79.8758 3.53431 79.214 1.89453 78.6847V119.958C8.26942 120.411 23.406 121.147 30.5323 123.151C32.6125 123.737 35.014 124.288 37.4357 124.783C44.5278 126.241 51.8188 127.23 51.8188 127.23C51.8188 127.23 55.0053 120.602 58.0643 113.606C58.8751 111.75 59.762 109.976 60.624 108.37C63.005 103.935 65.2024 100.804 65.2024 100.804C61.3783 99.9935 58.0643 99.9528 54.4952 98.8054Z" fill="#F95031"/>
<path d="M65.2042 100.804C65.2042 100.804 61.1254 106.611 58.0661 113.606C55.0071 120.602 51.8206 127.23 51.8206 127.23C51.8206 127.23 44.5296 126.241 37.4375 124.783C40.1091 119.363 42.9897 113.505 45.4472 108.492C48.5369 102.201 51.1423 99.5037 53.1154 98.4229C53.6151 98.5404 54.0791 98.6676 54.497 98.8055C58.0661 99.9528 61.3801 99.9935 65.2042 100.804Z" fill="#FF6A3A"/>
<path d="M158.55 61.5527L156.613 115.816L156.12 129.651L155.214 129.617L116.23 128.225L97.392 127.555L80.707 126.959L83.1403 58.8578L158.55 61.5527Z" fill="#E89D53"/>
<path d="M125.779 75.6238L114.824 75.2324L115.368 60.0101L126.323 60.4015L125.779 75.6238Z" fill="#DBAC85"/>
<path d="M123.892 128.502L112.938 128.11L113.481 112.888L124.436 113.28L123.892 128.502Z" fill="#DBAC85"/>
<path d="M140.507 66.743L133.438 66.4907L133.481 65.2808L140.55 65.5331L140.507 66.743Z" fill="#3F5FA1"/>
<path d="M150.536 69.8435L133.34 69.2293L133.365 68.5287L150.561 69.1429L150.536 69.8435Z" fill="#A6D4E8"/>
<path d="M150.474 71.4994L133.277 70.8856L133.303 70.185L150.499 70.7988L150.474 71.4994Z" fill="#A6D4E8"/>
<path d="M150.419 73.1555L133.223 72.5414L133.248 71.8408L150.445 72.4549L150.419 73.1555Z" fill="#A6D4E8"/>
<path d="M95.0263 64.6524L87.5974 64.387L87.332 71.8159L94.7609 72.0813L95.0263 64.6524ZM94.4636 65.1759L94.2374 71.5186L87.8944 71.2923L88.121 64.9497L94.4636 65.1759Z" fill="#231F20"/>
<path d="M89.0391 70.1419C89.0441 70.0025 89.0487 69.8688 89.054 69.7244C90.433 69.7736 91.8123 69.8227 93.1996 69.8723C93.195 70.0079 93.19 70.1446 93.185 70.2898C91.8038 70.2406 90.4245 70.1915 89.0391 70.1419Z" fill="#231F20"/>
<path d="M92.0159 67.1206C91.9226 67.1175 91.8511 67.1148 91.7578 67.1113C91.9326 66.8317 92.097 66.569 92.2717 66.2894C92.425 66.5771 92.5702 66.8509 92.7246 67.1413C92.6347 67.1421 92.564 67.1428 92.4792 67.144C92.45 67.966 92.4204 68.786 92.3908 69.6134C92.2322 69.608 92.0874 69.6026 91.9272 69.5969C91.9564 68.7791 91.986 67.9591 92.0159 67.1206Z" fill="#231F20"/>
<path d="M89.9687 67.0488C89.8761 67.0457 89.8043 67.043 89.7109 67.0396C89.8853 66.7599 90.0497 66.4964 90.2249 66.2157C90.3781 66.5045 90.5245 66.7807 90.6808 67.0753C90.5852 67.0722 90.5141 67.0695 90.4304 67.0665C90.4008 67.8965 90.3716 68.7158 90.342 69.5416C90.1841 69.5358 90.0393 69.5308 89.8799 69.5251C89.9095 68.7058 89.9387 67.8869 89.9687 67.0488Z" fill="#231F20"/>
<path d="M99.0679 70.2334C98.9561 70.2291 98.8505 70.2249 98.7448 70.2218C98.5428 70.2157 98.3404 70.2119 98.1383 70.2034C97.9981 70.1976 97.8917 70.1427 97.8249 70.0067C97.6889 69.7306 97.5418 69.4602 97.4062 69.2001C97.5491 69.2182 97.6939 69.2462 97.8399 69.2531C98.2574 69.2735 98.6757 69.285 99.1009 69.3C99.0894 69.6265 99.079 69.9219 99.0679 70.2334Z" fill="#231F20"/>
<path d="M100.829 67.8504C100.979 68.1289 101.131 68.4012 101.271 68.6789C101.323 68.7811 101.309 68.8882 101.241 68.9916C101.069 69.2504 100.905 69.5143 100.746 69.7625C100.694 69.638 100.647 69.5093 100.587 69.3872C100.415 69.0377 100.236 68.6908 100.06 68.3424C100.043 68.3082 100.029 68.2729 100.008 68.2272C100.282 68.1016 100.551 67.9779 100.829 67.8504Z" fill="#231F20"/>
<path d="M98.6722 68.019C98.4229 67.8419 98.184 67.6722 97.9336 67.4943C98.1057 67.2205 98.2716 66.9497 98.446 66.6846C98.4978 66.6055 98.582 66.5633 98.6841 66.5683C98.9918 66.5836 99.2998 66.5971 99.6075 66.6117L99.6317 66.6167C99.5537 66.7181 99.4692 66.8156 99.3982 66.922C99.1781 67.252 98.963 67.585 98.7456 67.9165C98.7245 67.9487 98.7007 67.9795 98.6722 68.019Z" fill="#231F20"/>
<path d="M100.575 67.2174C100.642 67.184 100.698 67.1559 100.754 67.1279L100.77 67.1394C100.72 67.2224 100.671 67.3053 100.622 67.3883C100.545 67.5158 100.47 67.6445 100.39 67.7697L100.305 67.8312C100.047 67.827 99.7896 67.8158 99.5246 67.7816C99.5887 67.7448 99.6528 67.7083 99.7247 67.6668C99.6359 67.4985 99.5557 67.3288 99.4593 67.1698C99.4009 67.0733 99.4162 67.0065 99.4685 66.9128C99.6044 66.6685 99.8099 66.5867 100.073 66.612C100.197 66.6243 100.292 66.6796 100.351 66.7968C100.42 66.9358 100.497 67.0714 100.575 67.2174Z" fill="#231F20"/>
<path d="M98.4769 68.7088C98.4173 68.6735 98.3578 68.6382 98.286 68.5959C98.19 68.7484 98.0847 68.8948 98.0025 69.0526C97.9407 69.1709 97.8619 69.1978 97.7344 69.1947C97.4617 69.1886 97.3069 69.0687 97.1886 68.7995C97.1433 68.6962 97.1521 68.5932 97.2151 68.4953C97.3011 68.3616 97.3833 68.2256 97.4694 68.087C97.4114 68.0478 97.3595 68.0129 97.3077 67.9779L97.3111 67.9449C97.4671 67.9506 97.6257 67.9756 97.7786 67.9572C98.0379 67.9257 98.1915 68.0167 98.2764 68.2664C98.3271 68.4154 98.4193 68.5502 98.4926 68.6916L98.4769 68.7088Z" fill="#231F20"/>
<path d="M99.7959 69.091C99.7932 69.1583 99.7909 69.2251 99.7878 69.3111C99.8427 69.313 99.8938 69.3146 99.9449 69.3165C100.051 69.3203 100.158 69.32 100.264 69.3292C100.348 69.3365 100.471 69.3265 100.507 69.3753C100.606 69.5089 100.708 69.6614 100.659 69.8439C100.632 69.948 100.583 70.049 100.526 70.1412C100.462 70.2483 100.359 70.296 100.228 70.2871C100.074 70.2764 99.9188 70.2748 99.7532 70.2687C99.7502 70.3467 99.7479 70.4112 99.7456 70.4757L99.7244 70.4807C99.6242 70.2994 99.5343 70.1116 99.4206 69.9395C99.3369 69.8124 99.3476 69.719 99.4348 69.6007C99.5577 69.4348 99.6614 69.2543 99.7728 69.0803L99.7959 69.091Z" fill="#231F20"/>
<path d="M103.089 64.9401L95.6599 64.675L95.3945 72.1039L102.823 72.369L103.089 64.9401ZM102.527 65.464L102.3 71.8066L95.9572 71.58L96.1835 65.2374L102.527 65.464Z" fill="#231F20"/>
<path d="M106.94 66.8125C106.87 66.8974 106.816 67.0138 106.749 67.1064C106.713 67.1574 106.68 67.2112 106.632 67.283L107.129 67.3007C106.864 67.6537 106.61 67.9921 106.352 68.3363C106.776 68.7442 107.572 68.8244 108.124 68.5183C108.558 68.2779 108.82 67.8915 109.003 67.4463C109.075 67.2704 109.129 67.086 109.19 66.8928L106.94 66.8125Z" fill="#231F20"/>
<path d="M105.848 70.7423C105.853 70.6056 105.857 70.4742 105.863 70.3298C106.249 70.3436 106.628 70.3571 107.02 70.3713C107.039 69.857 107.056 69.3553 107.075 68.846C107.227 68.8514 107.367 68.8564 107.519 68.8618C107.502 69.3649 107.484 69.8662 107.465 70.3813C107.857 70.3955 108.236 70.4089 108.624 70.4227C108.619 70.5675 108.614 70.6989 108.609 70.841C107.695 70.8084 106.778 70.7754 105.848 70.7423Z" fill="#231F20"/>
<path d="M106.66 66.8026L105.566 66.7634C105.654 67.285 105.821 67.7586 106.168 68.1696C106.332 67.9495 106.486 67.7444 106.655 67.5197L106.168 67.5024C106.336 67.2631 106.496 67.0357 106.66 66.8026Z" fill="#231F20"/>
<path d="M111.151 65.2281L103.722 64.9627L103.457 72.3916L110.886 72.657L111.151 65.2281ZM110.589 65.7517L110.362 72.0943L104.019 71.8681L104.246 65.5254L110.589 65.7517Z" fill="#231F20"/>
<path d="M115.395 128.199C115.395 128.199 114.948 133.877 113.083 135.779C111.211 137.682 106.965 135.317 106.965 135.317C106.965 135.317 106.113 138.19 96.4246 136.788C96.4246 136.788 95.0637 139.21 90.7314 139.634C90.7314 139.634 90.3942 140.146 88.6922 140.828C86.9941 141.507 85.5499 140.828 85.5499 140.828C85.5499 140.828 83.9352 143.034 81.2176 143.205C78.4925 143.375 72.5489 136.576 66.2569 133.005C66.2569 133.005 63.7061 130.886 59.3738 130.287C58.8165 130.211 58.1797 130.132 57.4898 130.049C52.8164 129.487 45.7812 128.836 45.7812 128.836L56.5687 110.32C56.5687 110.32 59.5179 110.464 62.7662 110.521C65.6354 110.574 68.7397 110.559 70.2558 110.32C70.2558 110.32 71.9539 109.725 73.4815 108.622C75.0129 107.515 80.1107 105.646 83.6774 105.051C87.248 104.456 89.5411 103.918 92.3462 103.849C95.1509 103.778 103.054 102.333 106.708 101.314C108.398 100.842 110.309 100.281 112.086 100.496C113.734 100.696 114.497 102.672 114.265 104.183C114.024 105.745 112.969 107.09 111.683 108.009C110.397 108.927 108.889 109.474 107.389 109.971C105.996 110.433 104.925 110.24 103.528 110.382C102.282 110.508 101.033 110.63 99.7955 110.819C98.5467 111.011 97.1517 111.233 96.1707 112.101C94.7265 113.379 96.2579 115.759 97.5312 117.544C98.8049 119.326 107.132 126.811 109.513 128.081L115.012 128.195L115.395 128.199Z" fill="#FAC99E"/>
<path d="M60.7768 109.691C57.9164 108.753 47.4647 105.311 43.5438 103.848C43.3552 103.776 43.1819 103.71 43.0237 103.649C39.0724 102.119 37.0329 103.649 30.7872 100.207C24.5415 96.7659 17.1488 96.8934 14.3445 95.3639C11.5403 93.8344 7.97128 92.3049 1.90909 89.4138L1.89453 89.4073V137.439C6.88996 137.191 12.1427 137.11 16.7663 136.917C20.9012 136.743 23.1904 136.958 25.2503 137.223C27.3814 137.488 29.2679 137.809 32.6991 137.809C39.4547 137.809 43.4062 139.466 46.0827 137.809C48.7595 136.152 54.6228 124.68 57.8093 118.649C60.0221 114.463 60.9451 111.888 61.3019 110.705C61.4294 110.277 61.2001 109.833 60.7768 109.691Z" fill="#F95031"/>
<path d="M61.3016 110.705C60.9448 111.888 60.0218 114.463 57.809 118.649C54.6225 124.68 48.7592 136.152 46.0824 137.809C43.406 139.466 39.4544 137.809 32.6988 137.809C29.2676 137.809 27.3811 137.488 25.25 137.223L25.2551 137.218C35.3961 125.155 38.6896 111.169 42.3862 105.433C42.7787 104.827 43.1663 104.302 43.5435 103.848C47.4644 105.311 57.9161 108.753 60.7765 109.691C61.1998 109.833 61.4291 110.277 61.3016 110.705Z" fill="#FF6A3A"/>
<path d="M193.947 132.097C190.219 130.706 186.378 129.183 184.001 127.994C178.138 125.064 173.423 121.748 167.813 119.072C162.207 116.396 161.441 116.142 156.726 114.102C152.007 112.063 151.37 111.298 147.227 110.214C143.729 109.3 141.174 110.661 142.448 113.72C143.725 116.778 148.565 117.286 149.968 118.181C151.37 119.072 154.941 119.966 155.195 121.111C155.331 121.736 155.547 123.036 155.282 124.196C155.062 125.171 154.505 126.046 153.284 126.338C150.604 126.975 148.565 127.358 145.381 128.248C142.194 129.143 139.518 128.76 135.693 128.76C131.869 128.76 123.458 128.377 123.458 128.377C123.458 128.377 122.563 129.651 126.517 130.928C126.793 131.019 127.058 131.106 127.316 131.197C130.709 132.399 132.354 133.71 135.439 135.131C138.752 136.663 142.065 136.788 144.362 138.065C146.655 139.339 149.714 141.378 152.773 141.632C155.832 141.89 156.214 140.87 162.332 140.104C168.45 139.339 172.149 139.468 175.333 140.741C177.185 141.481 186.483 146.957 193.947 151.415V132.097Z" fill="#FAC99E"/>
<path d="M140.414 128.841C140.414 128.841 140.414 128.841 140.415 128.841C140.414 128.841 140.414 128.841 140.414 128.841ZM140.412 128.841C140.326 128.841 140.24 128.841 140.154 128.84C140.24 128.841 140.326 128.841 140.412 128.841ZM139.008 128.822C138.857 128.818 138.704 128.814 138.551 128.81C138.704 128.814 138.857 128.818 139.008 128.822ZM145.342 128.259C145.355 128.255 145.368 128.252 145.38 128.248C145.368 128.252 145.355 128.255 145.342 128.259Z" fill="#A84829"/>
</g>
</svg>
