<svg width="202" height="222" viewBox="0 0 202 222" fill="none" xmlns="http://www.w3.org/2000/svg">
<circle cx="100.5" cy="107.5" r="97.5" fill="#F4F4F4"/>
<path d="M154.089 38.4493H40.5366C39.3845 38.4493 38.4487 39.3844 38.4487 40.5373V174.773C38.4487 175.927 39.3844 176.861 40.5366 176.861H154.089C155.242 176.861 156.178 175.927 156.178 174.773V40.5373C156.178 39.3844 155.242 38.4493 154.089 38.4493Z" fill="white" stroke="#E2E2E2" stroke-width="0.428571"/>
<g filter="url(#filter0_d_3400_5903)">
<path d="M40.5373 38.4702C39.3972 38.4702 38.4701 39.3972 38.4701 40.5373V174.774C38.4701 175.914 39.3972 176.841 40.5373 176.841H154.09C155.23 176.841 156.158 175.914 156.158 174.774V40.5373C156.158 39.3972 155.23 38.4702 154.09 38.4702H40.5373ZM154.09 177.311H40.5373C39.1383 177.311 38 176.173 38 174.774V40.5373C38 39.1384 39.1383 38 40.5373 38H154.09C155.49 38 156.628 39.1384 156.628 40.5373V174.774C156.628 176.173 155.49 177.311 154.09 177.311Z" fill="#F6F6F9"/>
</g>
<path d="M46.6328 67.7283H73.3863V98.1302H46.6328V67.7283Z" fill="#F6F6F9"/>
<path d="M79.8125 68.0761H106.566V98.4771H79.8125V68.0761Z" fill="#F6F6F9"/>
<path d="M113.691 68.7707H140.445V99.1726H113.691V68.7707Z" fill="#F6F6F9"/>
<path d="M46.8477 110.788H84.5066V162H46.8477V110.788Z" fill="#F6F6F9"/>
<path d="M75.4555 50.7199H142.418C143.69 50.7199 144.721 51.7508 144.721 53.0221V54.2036C144.721 55.4749 143.69 56.5059 142.418 56.5059H75.4555C74.1833 56.5059 73.1523 55.4749 73.1523 54.2036V53.0221C73.1523 51.7508 74.1833 50.7199 75.4555 50.7199Z" fill="#FFECE9"/>
<path d="M40.125 59.6225H153.596V65.5722H40.125V59.6225Z" fill="#F6F6F9"/>
<path d="M46.7539 100.691H74.9257V102.339H46.7539V100.691Z" fill="#FFECE9"/>
<path d="M79.2266 100.769H107.397V102.417H79.2266V100.769Z" fill="#FFECE9"/>
<path d="M113.953 100.535H142.124V102.184H113.953V100.535Z" fill="#FFECE9"/>
<path d="M46.9297 103.918H75.0998V105.566H46.9297V103.918Z" fill="#FFECE9"/>
<path d="M79.3984 103.996H107.571V105.643H79.3984V103.996Z" fill="#FFECE9"/>
<path d="M114.121 103.763L129.168 103.601V105.249L114.121 105.41V103.763Z" fill="#FFECE9"/>
<path d="M46.6758 107.484L64.7327 107.455V109.103L46.6758 109.133V107.484Z" fill="#FFECE9"/>
<path d="M93.2031 115.644H135.188V121.847H93.2031V115.644Z" fill="#FFECE9"/>
<path d="M127.777 121.557C127.648 121.557 127.543 121.45 127.543 121.322V116.245C127.543 116.115 127.648 116.01 127.777 116.01C127.907 116.01 128.012 116.115 128.012 116.245V121.322C128.012 121.45 127.907 121.557 127.777 121.557Z" fill="#F6F6F9"/>
<path d="M130.683 117.637L131.883 119.127L132.839 117.57L130.683 117.637ZM131.909 119.768C131.838 119.768 131.771 119.736 131.726 119.681L130.021 117.564C129.965 117.495 129.953 117.4 129.99 117.319C130.027 117.238 130.107 117.185 130.196 117.182L133.26 117.086C133.353 117.096 133.428 117.129 133.471 117.203C133.514 117.279 133.513 117.371 133.468 117.444L132.109 119.656C132.07 119.722 132 119.762 131.924 119.767L131.909 119.768Z" fill="#F6F6F9"/>
<path d="M56.238 73.8752C56.238 73.8752 57.6035 75.1641 59.4981 75.3156C61.3936 75.467 62.3806 73.7238 62.3806 73.7238C62.3806 73.7238 64.2752 74.0267 65.4126 74.9361C66.5501 75.8464 69.5831 79.7888 69.5831 79.7888L66.853 82.7461L63.9723 80.9263L65.0332 91.1627H54.6454L54.8734 80.9263L53.205 82.9733L49.4141 81.3815C49.4141 81.3815 51.3862 77.0596 52.3722 75.9979C53.3574 74.9361 56.238 73.8752 56.238 73.8752Z" fill="#08A0F7"/>
<path d="M87.1387 73.1771H96.8936L101.802 92.0387L83 91.9788L87.1387 73.1771Z" fill="#FCEBBE"/>
<path d="M87.2148 71.6487H96.7099V73.0909H87.2148V71.6487Z" fill="#FF6A3A"/>
<path d="M92.2241 71.301C92.5877 71.301 92.8817 71.5959 92.8817 71.9595V72.7598C92.8817 73.1234 92.5877 73.4174 92.2241 73.4174C91.8605 73.4174 91.5664 73.1234 91.5664 72.7598V71.9595C91.5664 71.5959 91.8605 71.301 92.2241 71.301Z" fill="white"/>
<path d="M129.9 73.8365L137.261 73.6261C137.261 73.6261 136.051 76.6758 136.578 78.2006C137.103 79.7255 137.209 82.7232 136.946 83.564C136.682 84.4057 131.213 84.3009 129.268 84.2481C127.323 84.1953 124.955 85.0369 121.801 85.1417C118.646 85.2473 116.542 84.7217 116.542 84.7217C116.542 84.7217 116.332 83.6697 117.49 83.2488C118.646 82.828 122.116 82.2504 123.589 81.1984C125.062 80.1463 127.744 78.8847 128.269 77.8854C128.795 76.8862 129.9 73.8365 129.9 73.8365Z" fill="#FF6A3A"/>
<path d="M116.438 84.5642C116.438 84.5642 115.702 87.2459 116.28 88.1923C116.859 89.1387 119.225 89.2963 121.224 89.2435C123.221 89.1907 126.061 88.9283 127.849 88.6651C129.637 88.4018 133.916 88.7593 135.02 88.5488C136.124 88.3393 136.939 87.6825 137.044 86.5248C137.148 85.368 137.635 83.9761 136.794 83.66C135.953 83.3448 133.867 83.9092 131.157 83.9409C129.031 83.9646 126.204 84.5809 123.154 84.8433C120.104 85.1065 116.438 84.5642 116.438 84.5642Z" fill="white"/>
<path d="M128.876 80.7274C128.802 80.7274 128.73 80.693 128.684 80.6279L127.281 78.6514C127.207 78.5458 127.231 78.3987 127.338 78.3239C127.443 78.2491 127.59 78.2737 127.665 78.3802L129.067 80.3559C129.142 80.4615 129.117 80.6085 129.011 80.6843C128.97 80.7133 128.923 80.7274 128.876 80.7274Z" fill="#F6F6F9"/>
<path d="M127.333 81.8402C127.255 81.8402 127.178 81.8015 127.134 81.7301L125.696 79.4297C125.627 79.3205 125.661 79.1752 125.771 79.1066C125.88 79.0396 126.025 79.0714 126.095 79.1814L127.532 81.481C127.601 81.591 127.568 81.7363 127.457 81.805C127.419 81.8296 127.376 81.8402 127.333 81.8402Z" fill="#F6F6F9"/>
<path d="M125.677 82.9187C125.595 82.9187 125.515 82.8755 125.471 82.7981L124.178 80.4624C124.115 80.3488 124.156 80.2053 124.27 80.1428C124.383 80.0803 124.526 80.1208 124.589 80.2343L125.883 82.57C125.946 82.6836 125.905 82.8262 125.791 82.8896C125.756 82.909 125.716 82.9187 125.677 82.9187Z" fill="#F6F6F9"/>
<path d="M123.701 83.5297C123.609 83.5297 123.522 83.4751 123.484 83.3845L122.693 81.4801C122.644 81.3604 122.701 81.2231 122.821 81.1729C122.94 81.1227 123.078 81.1808 123.128 81.3006L123.918 83.2048C123.967 83.3246 123.911 83.4619 123.79 83.5121C123.761 83.5244 123.731 83.5297 123.701 83.5297Z" fill="#F6F6F9"/>
<path d="M131.285 84.057C131.174 84.0332 131.13 83.9558 131.149 83.8809C131.176 83.7788 131.822 81.3771 133.297 80.428C134.761 79.4834 136.697 79.5362 136.78 79.5388C136.858 79.5406 136.918 79.6057 136.916 79.6841C136.914 79.7616 136.857 79.8214 136.771 79.8197C136.754 79.8214 134.839 79.7686 133.449 80.6649C132.066 81.5558 131.428 83.9285 131.422 83.9523C131.405 84.0156 131.348 84.057 131.285 84.057Z" fill="#F6F6F9"/>
<path d="M121.807 85.0343C121.752 85.0343 121.699 85.0018 121.677 84.9472L120.67 82.4917C120.641 82.4196 120.676 82.3377 120.748 82.3086C120.818 82.2778 120.902 82.313 120.931 82.3852L121.937 84.8406C121.967 84.9128 121.932 84.9947 121.861 85.0237C121.843 85.0317 121.825 85.0343 121.807 85.0343Z" fill="#F6F6F9"/>
<path d="M129.352 75.3605C129.276 75.3605 129.213 75.3006 129.211 75.2249C129.208 75.1465 129.269 75.0814 129.347 75.0787L136.778 74.8428C136.854 74.8428 136.916 74.9018 136.918 74.9784C136.921 75.0567 136.86 75.1219 136.782 75.1236L129.352 75.3605Z" fill="#F6F6F9"/>
<path d="M63.3352 113.66L67.0532 119.527L70.7711 113.487C70.7711 113.487 75.0128 114.532 75.9997 115.578C76.3273 115.924 77.9569 116.302 77.5924 117.385C76.8555 119.574 73.5021 122.955 73.5021 122.955L71.294 129.695L76.0579 152.7L58.398 153.107L62.174 129.52L59.6754 122.433C59.6754 122.433 56.4893 119.725 55.9302 117.651C55.7022 116.805 57.4903 116.023 57.6426 115.636C58.1655 114.3 63.3352 113.66 63.3352 113.66Z" fill="#FBA63C"/>
<path d="M62.0859 129.128H71.397V130.639H62.0859V129.128Z" fill="white"/>
<path d="M66.9118 128.82C66.5605 128.82 66.2743 129.106 66.2743 129.457V130.471C66.2743 130.821 66.5605 131.107 66.9118 131.107C67.2639 131.107 67.5509 130.821 67.5509 130.471V129.457C67.5509 129.106 67.2639 128.82 66.9118 128.82ZM66.9118 131.294C66.4566 131.294 66.0859 130.924 66.0859 130.471V129.457C66.0859 129.002 66.4566 128.632 66.9118 128.632C67.3678 128.632 67.7384 129.002 67.7384 129.457V130.471C67.7384 130.924 67.3678 131.294 66.9118 131.294Z" fill="#F6F6F9"/>
<path d="M161.699 127.048H105.225C104.071 127.048 103.136 127.984 103.136 129.137V157.583C103.136 158.736 104.071 159.672 105.225 159.672H161.699C162.851 159.672 163.787 158.736 163.787 157.583V129.137C163.787 127.984 162.851 127.048 161.699 127.048Z" fill="white" stroke="#E2E2E2" stroke-width="0.428571"/>
<path d="M142.398 140.058C142.387 139.956 142.16 137.528 143.607 135.841C144.414 134.9 145.568 134.383 147.038 134.307C148.444 134.228 149.58 134.618 150.422 135.449C152.013 137.022 151.928 139.61 151.924 139.72L150.984 139.682C150.985 139.66 151.054 137.391 149.757 136.115C149.113 135.479 148.209 135.186 147.088 135.245C145.887 135.309 144.957 135.714 144.324 136.449C143.139 137.826 143.331 139.943 143.333 139.964L142.398 140.058Z" fill="#FF6A3A"/>
<path d="M141.323 140.774C140.947 140.774 140.641 141.079 140.641 141.455L139.168 150.507C139.175 150.806 139.48 151.113 139.855 151.113L155.053 150.944C155.434 150.944 155.739 150.64 155.739 150.264L154.355 141.528C154.35 141.079 154.045 140.774 153.668 140.774H141.323ZM139.86 152.052C138.962 152.052 138.234 151.325 138.234 150.43L139.707 141.378C139.701 140.561 140.428 139.834 141.323 139.834H153.668C154.562 139.834 155.29 140.561 155.29 141.455L156.673 150.191C156.68 151.158 155.952 151.885 155.058 151.885L139.86 152.052Z" fill="#FF6A3A"/>
<path d="M145.771 150.088L143.637 145.095L144.501 144.726L146.027 148.296L151.177 142.026L151.904 142.622L145.771 150.088Z" fill="#FF6A3A"/>
<path d="M113.029 139.427H130.883C132.735 139.427 134.237 140.929 134.237 142.781C134.237 144.634 132.735 146.136 130.883 146.136H113.029C111.177 146.136 109.676 144.634 109.676 142.781C109.676 140.929 111.177 139.427 113.029 139.427Z" fill="#FF6A3A"/>
<path d="M67.8164 95.1139C67.8164 93.6807 68.9812 92.5185 70.4189 92.5185C71.8574 92.5185 73.0222 93.6807 73.0222 95.1139C73.0222 96.5481 71.8574 97.7102 70.4189 97.7102C68.9812 97.7102 67.8164 96.5481 67.8164 95.1139Z" fill="#FCBEBE"/>
<path d="M69.6396 93.9298C69.5357 93.9298 69.4336 93.9642 69.327 94.0328C69.07 94.2019 68.9432 94.4017 68.9388 94.6447C68.9256 95.4098 70.0947 96.3448 70.4126 96.5842C70.7295 96.3351 71.9154 95.3526 71.8978 94.5901C71.8925 94.3665 71.7798 94.1843 71.5527 94.032C71.4074 93.9369 71.2683 93.9052 71.1222 93.9378C70.8396 94.002 70.6045 94.304 70.5376 94.4149C70.5129 94.4554 70.4627 94.4827 70.4222 94.4792C70.3747 94.4783 70.3316 94.4537 70.3078 94.4132C70.3078 94.4132 70.078 94.0205 69.7505 93.943C69.7135 93.9342 69.6766 93.9298 69.6396 93.9298ZM70.4134 96.8845C70.387 96.8845 70.3597 96.8765 70.3369 96.8598C70.2682 96.8114 68.6544 95.6607 68.672 94.6394C68.6782 94.3075 68.8499 94.0284 69.1809 93.8101C69.3869 93.6754 69.6 93.6323 69.8139 93.6842C70.0921 93.7511 70.3043 93.9642 70.4249 94.1165C70.5517 93.9615 70.7753 93.7432 71.0641 93.678C71.2815 93.6296 71.4946 93.6736 71.7006 93.811C72.0008 94.0108 72.1566 94.2714 72.1637 94.584C72.1883 95.5982 70.5622 96.8079 70.4927 96.858C70.4689 96.8757 70.4416 96.8845 70.4134 96.8845Z" fill="#F6F6F9"/>
<path d="M80.0645 157.336C79.9615 157.336 79.8585 157.37 79.7519 157.44C79.4949 157.609 79.3681 157.809 79.3637 158.051C79.3505 158.815 80.5205 159.75 80.8383 159.99C81.1562 159.741 82.3403 158.759 82.3227 157.996C82.3174 157.773 82.2047 157.591 81.9776 157.44C81.8332 157.343 81.6932 157.312 81.5471 157.346C81.2645 157.408 81.0294 157.71 80.9625 157.821C80.9387 157.861 80.8956 157.885 80.8489 157.885C80.8014 157.885 80.7573 157.86 80.7327 157.818C80.7327 157.818 80.5029 157.428 80.1763 157.35C80.1393 157.34 80.1015 157.336 80.0645 157.336ZM80.8392 160.291C80.8128 160.291 80.7855 160.282 80.7626 160.266C80.694 160.218 79.0802 159.067 79.0978 158.046C79.104 157.714 79.2748 157.436 79.6067 157.217C79.8127 157.082 80.0249 157.038 80.2397 157.091C80.5179 157.157 80.7292 157.369 80.8498 157.523C80.9774 157.368 81.2002 157.149 81.489 157.084C81.7073 157.036 81.9204 157.081 82.1255 157.217C82.4266 157.418 82.5824 157.679 82.5895 157.99C82.6123 159.005 80.988 160.213 80.9185 160.264C80.8947 160.282 80.8674 160.291 80.8392 160.291Z" fill="#F6F6F9"/>
<path d="M100.824 95.1139C100.824 93.6807 101.99 92.5185 103.427 92.5185C104.865 92.5185 106.03 93.6807 106.03 95.1139C106.03 96.5481 104.865 97.7102 103.427 97.7102C101.99 97.7102 100.824 96.5481 100.824 95.1139Z" fill="#FCBEBE"/>
<path d="M102.651 93.9298C102.547 93.9298 102.445 93.9642 102.34 94.0328C102.083 94.2019 101.955 94.4017 101.95 94.6447C101.937 95.4098 103.106 96.3448 103.424 96.5842C103.742 96.3351 104.928 95.3526 104.91 94.5901C104.904 94.3665 104.792 94.1843 104.564 94.032C104.42 93.9369 104.279 93.9052 104.134 93.9378C103.851 94.002 103.616 94.304 103.549 94.4149C103.526 94.4546 103.482 94.4792 103.435 94.4792C103.389 94.4713 103.343 94.4537 103.32 94.4132C103.32 94.4132 103.09 94.0205 102.763 93.943C102.726 93.9342 102.688 93.9298 102.651 93.9298ZM103.426 96.8845C103.399 96.8845 103.371 96.8765 103.349 96.8598C103.28 96.8114 101.666 95.6607 101.684 94.6394C101.69 94.3075 101.862 94.0284 102.193 93.8101C102.4 93.6754 102.612 93.6323 102.826 93.6842C103.104 93.7511 103.316 93.9642 103.437 94.1165C103.563 93.9615 103.787 93.7432 104.076 93.678C104.292 93.6296 104.508 93.6736 104.712 93.811C105.013 94.0108 105.168 94.2714 105.175 94.584C105.2 95.5982 103.574 96.8079 103.504 96.858C103.482 96.8757 103.453 96.8845 103.426 96.8845Z" fill="#F6F6F9"/>
<path d="M134.031 95.1139C134.031 93.6807 135.197 92.5185 136.634 92.5185C138.072 92.5185 139.237 93.6807 139.237 95.1139C139.237 96.5481 138.072 97.7102 136.634 97.7102C135.197 97.7102 134.031 96.5481 134.031 95.1139Z" fill="#FCBEBE"/>
<path d="M135.853 93.9298C135.75 93.9298 135.648 93.9642 135.541 94.0328C135.284 94.2019 135.157 94.4017 135.153 94.6438C135.14 95.4098 136.31 96.3448 136.627 96.5842C136.944 96.3351 138.129 95.3526 138.112 94.5901C138.106 94.3665 137.994 94.1843 137.767 94.032C137.621 93.9369 137.481 93.9052 137.336 93.9378C137.053 94.002 136.818 94.304 136.752 94.4141C136.728 94.4554 136.698 94.4827 136.636 94.4792C136.59 94.4783 136.546 94.4537 136.522 94.4132C136.522 94.4132 136.293 94.0205 135.965 93.943C135.928 93.9342 135.891 93.9298 135.853 93.9298ZM136.628 96.8845C136.601 96.8845 136.575 96.8765 136.551 96.8598C136.482 96.8114 134.868 95.6607 134.887 94.6394C134.892 94.3067 135.064 94.0284 135.395 93.8101C135.602 93.6736 135.815 93.6314 136.029 93.6842C136.307 93.7511 136.518 93.9642 136.64 94.1165C136.767 93.9615 136.989 93.7432 137.278 93.678C137.494 93.6296 137.709 93.6736 137.915 93.811C138.215 94.0108 138.371 94.2714 138.379 94.584C138.401 95.5982 136.776 96.8079 136.707 96.858C136.684 96.8757 136.656 96.8845 136.628 96.8845Z" fill="#F6F6F9"/>
<defs>
<filter id="filter0_d_3400_5903" x="0.285715" y="0.285715" width="200.915" height="221.597" filterUnits="userSpaceOnUse" color-interpolation-filters="sRGB">
<feFlood flood-opacity="0" result="BackgroundImageFix"/>
<feColorMatrix in="SourceAlpha" type="matrix" values="0 0 0 0 0 0 0 0 0 0 0 0 0 0 0 0 0 0 127 0" result="hardAlpha"/>
<feOffset dx="3.42857" dy="3.42857"/>
<feGaussianBlur stdDeviation="20.5714"/>
<feColorMatrix type="matrix" values="0 0 0 0 0 0 0 0 0 0 0 0 0 0 0 0 0 0 0.06 0"/>
<feBlend mode="normal" in2="BackgroundImageFix" result="effect1_dropShadow_3400_5903"/>
<feBlend mode="normal" in="SourceGraphic" in2="effect1_dropShadow_3400_5903" result="shape"/>
</filter>
</defs>
</svg>
