<svg width="196" height="196" viewBox="0 0 196 196" fill="none" xmlns="http://www.w3.org/2000/svg">
<circle cx="98" cy="98" r="98" fill="#F4F4F4"/>
<path d="M157.469 141.734H38.054C34.6974 141.734 31.9766 139.013 31.9766 135.657V57.4155C31.9766 54.0593 34.6974 51.3385 38.054 51.3385H157.469C160.826 51.3385 163.546 54.0593 163.546 57.4155V135.657C163.546 139.013 160.826 141.734 157.469 141.734Z" fill="#828282"/>
<path d="M37.7812 134.155H157.748V58.9176H37.7812V134.155Z" fill="white"/>
<path d="M96.1211 55.0915C96.1211 54.1852 96.8558 53.4505 97.762 53.4505C98.6683 53.4505 99.403 54.1852 99.403 55.0915C99.403 55.9977 98.6683 56.7324 97.762 56.7324C96.8558 56.7324 96.1211 55.9977 96.1211 55.0915Z" fill="#F4F4F6"/>
<path d="M168.006 150.662H27.5219C24.4721 150.662 22 148.19 22 145.14V141.734H173.528V145.14C173.528 148.19 171.056 150.662 168.006 150.662Z" fill="#828282"/>
<path d="M107.801 144.173H87.7317C87.1204 144.173 86.625 143.677 86.625 143.066V141.734H108.908V143.066C108.908 143.677 108.413 144.173 107.801 144.173Z" fill="#F4F4F6"/>
<path d="M157.748 66.6579H37.7812V58.9176H157.748V66.6579Z" fill="#FF9675"/>
<path d="M155.656 89.4148H66.293V69.211H155.656V89.4148Z" fill="#F4F4F6"/>
<path d="M39.0938 129.822H64.737V69.211H39.0938V129.822Z" fill="#F4F4F6"/>
<path d="M155.656 97.1855H66.293V91.746H155.656V97.1855Z" fill="#F4F4F6"/>
<path d="M155.656 107.287H66.293V101.848H155.656V107.287Z" fill="#F4F4F6"/>
<path d="M155.656 117.389H66.293V111.95H155.656V117.389Z" fill="#F4F4F6"/>
<path d="M155.656 127.491H66.293V122.052H155.656V127.491Z" fill="#F4F4F6"/>
</svg>
