<svg width="196" height="196" viewBox="0 0 196 196" fill="none" xmlns="http://www.w3.org/2000/svg">
<circle cx="98" cy="98" r="98" fill="#F4F4F4"/>
<path d="M22.0901 140.89H193.004L174.014 141.795H4.00391L22.0901 140.89Z" fill="#E2E2E2"/>
<path d="M140.886 127.346L140.496 121.338L142.36 121.217L142.63 125.369C142.66 125.862 142.493 126.347 142.166 126.717C141.84 127.088 141.379 127.314 140.886 127.346Z" fill="#828282"/>
<path d="M139.865 111.691L140.429 120.375L87.2898 123.828C86.7927 121.705 85.5584 119.827 83.8065 118.528C82.0547 117.229 79.899 116.594 77.7229 116.735C75.5468 116.877 73.4914 117.786 71.9224 119.3C70.3533 120.815 69.3725 122.837 69.1543 125.006L34.233 127.275L33.668 118.58L139.865 111.691Z" fill="#FF6A3A"/>
<path d="M140.435 120.375L140.575 122.529L87.5608 125.974L87.5196 125.34C87.4871 124.831 87.4113 124.325 87.293 123.828L113.864 122.102L140.435 120.375Z" fill="#FF6A3A"/>
<path d="M160.142 80.5074L137.789 79.6313L140.513 121.546L142.337 121.427L142.332 121.345C142.256 120.181 142.41 119.013 142.785 117.909C143.16 116.805 143.75 115.785 144.519 114.908C145.289 114.032 146.224 113.315 147.27 112.8C148.317 112.285 149.455 111.981 150.619 111.906C151.783 111.83 152.95 111.984 154.055 112.359C155.159 112.735 156.179 113.324 157.055 114.094C157.932 114.863 158.648 115.798 159.164 116.845C159.679 117.891 159.983 119.029 160.058 120.193L160.063 120.276L173.317 119.414L171.821 96.3968L160.142 80.5074Z" fill="#FF6A3A"/>
<path d="M172.396 105.331L170.574 105.449L170.849 109.675L172.67 109.557L172.396 105.331Z" fill="url(#paint0_linear_3400_6055)"/>
<path d="M143.78 91.2016L143.349 84.5663C143.335 84.3507 143.367 84.1347 143.443 83.9323C143.518 83.73 143.636 83.5459 143.788 83.3921C143.939 83.2384 144.122 83.1184 144.323 83.0402C144.524 82.9619 144.74 82.9271 144.956 82.938L157.285 83.538C157.697 83.5578 158.099 83.6661 158.465 83.8555C158.831 84.045 159.152 84.3112 159.406 84.6359L169.026 96.9008L158.839 97.5627L145.318 93.1762C144.894 93.0391 144.52 92.7775 144.246 92.4254C143.971 92.0733 143.809 91.6469 143.78 91.2016Z" fill="url(#paint1_linear_3400_6055)"/>
<path d="M149.762 98.4436L143.797 98.8312L143.841 99.516L149.806 99.1284L149.762 98.4436Z" fill="url(#paint2_linear_3400_6055)"/>
<path d="M34.2383 127.275L69.1624 125.006C69.1117 125.514 69.103 126.025 69.1362 126.535L69.1774 127.168L34.3782 129.429L34.2383 127.275Z" fill="#FF6A3A"/>
<path d="M83.7947 130.509C86.5091 127.417 86.2032 122.71 83.1115 119.996C80.0198 117.281 75.313 117.587 72.5985 120.679C69.8841 123.77 70.1899 128.477 73.2817 131.192C76.3734 133.906 81.0802 133.6 83.7947 130.509Z" fill="#626262"/>
<path d="M81.1091 128.154C82.5234 126.544 82.364 124.091 80.7532 122.677C79.1423 121.263 76.6899 121.422 75.2757 123.033C73.8614 124.644 74.0207 127.096 75.6316 128.51C77.2424 129.925 79.6948 129.765 81.1091 128.154Z" fill="#828282"/>
<path d="M79.601 125.503C79.6221 125.785 79.5591 126.066 79.42 126.312C79.2809 126.557 79.072 126.756 78.8197 126.882C78.5675 127.009 78.2833 127.058 78.0033 127.023C77.7233 126.987 77.4601 126.87 77.2471 126.685C77.0341 126.499 76.8809 126.255 76.807 125.983C76.7331 125.71 76.7418 125.422 76.8319 125.155C76.9221 124.887 77.0898 124.653 77.3135 124.481C77.5373 124.309 77.8071 124.207 78.0887 124.189C78.4631 124.165 78.832 124.289 79.1151 124.535C79.3983 124.781 79.5729 125.129 79.601 125.503Z" fill="white"/>
<path d="M158.689 121.536C159.077 117.44 156.072 113.804 151.976 113.415C147.881 113.027 144.245 116.032 143.856 120.128C143.468 124.223 146.473 127.859 150.569 128.248C154.664 128.637 158.3 125.631 158.689 121.536Z" fill="#626262"/>
<path d="M155.089 121.456C155.442 119.342 154.014 117.342 151.9 116.988C149.786 116.635 147.786 118.063 147.432 120.177C147.079 122.292 148.507 124.292 150.621 124.645C152.736 124.998 154.736 123.571 155.089 121.456Z" fill="#828282"/>
<path d="M151.37 122.047C152.148 121.997 152.738 121.325 152.688 120.546C152.637 119.768 151.965 119.178 151.187 119.228C150.408 119.279 149.818 119.951 149.869 120.729C149.92 121.508 150.592 122.098 151.37 122.047Z" fill="white"/>
<path d="M30.8469 75.5589C30.541 70.8507 34.1097 66.7859 38.818 66.48L125.205 60.8668C129.913 60.5609 133.978 64.1297 134.284 68.8379L136.924 109.474L33.4873 116.195L30.8469 75.5589Z" fill="#FBA63C"/>
<path d="M30.8427 88.3128C30.7872 87.4588 31.4345 86.7215 32.2885 86.666L72.4925 84.0536C73.3465 83.9981 74.0838 84.6455 74.1393 85.4995L74.1896 86.2726C74.245 87.1266 73.5977 87.8639 72.7437 87.9194L32.5397 90.5318C31.6857 90.5873 30.9484 89.9399 30.8929 89.0859L30.8427 88.3128Z" fill="white"/>
<path d="M24.1005 80.21C24.045 79.356 24.6923 78.6187 25.5463 78.5632L65.7503 75.9508C66.6044 75.8954 67.3416 76.5427 67.3971 77.3967L67.4474 78.1698C67.5029 79.0238 66.8555 79.7611 66.0015 79.8166L25.7975 82.429C24.9435 82.4845 24.2062 81.8371 24.1507 80.9831L24.1005 80.21Z" fill="white"/>
<path d="M31.3934 96.8175C31.338 95.9635 31.9853 95.2262 32.8393 95.1707L73.0433 92.5583C73.8973 92.5028 74.6346 93.1502 74.6901 94.0042L74.7403 94.7773C74.7958 95.6313 74.1485 96.3686 73.2945 96.4241L33.0905 99.0365C32.2365 99.0919 31.4992 98.4446 31.4437 97.5906L31.3934 96.8175Z" fill="white"/>
<path d="M25.7567 105.724C25.7012 104.87 26.3486 104.133 27.2026 104.077L67.4066 101.465C68.2606 101.409 68.9979 102.057 69.0534 102.911L69.1036 103.684C69.1591 104.538 68.5118 105.275 67.6578 105.331L27.4537 107.943C26.5997 107.999 25.8625 107.351 25.807 106.497L25.7567 105.724Z" fill="white"/>
<defs>
<linearGradient id="paint0_linear_3400_6055" x1="3965.15" y1="4204.15" x2="3976.83" y2="4203.39" gradientUnits="userSpaceOnUse">
<stop stop-color="#FFC572"/>
<stop offset="1" stop-color="#FF4EB3"/>
</linearGradient>
<linearGradient id="paint1_linear_3400_6055" x1="157.456" y1="106.322" x2="155.921" y2="88.4522" gradientUnits="userSpaceOnUse">
<stop stop-color="#D2DFEF"/>
<stop offset="0.36" stop-color="#D9E3F0"/>
<stop offset="0.87" stop-color="#ECEFF1"/>
<stop offset="1" stop-color="#F2F2F2"/>
</linearGradient>
<linearGradient id="paint2_linear_3400_6055" x1="11141.9" y1="64.0008" x2="11267.1" y2="55.8658" gradientUnits="userSpaceOnUse">
<stop stop-color="#FFC572"/>
<stop offset="1" stop-color="#FF4EB3"/>
</linearGradient>
</defs>
</svg>
