<svg width="595" height="301" viewBox="0 0 595 301" fill="none" xmlns="http://www.w3.org/2000/svg">
<path d="M107.74 286.02C107.74 284.66 108.053 283.44 108.68 282.36C109.32 281.28 110.18 280.44 111.26 279.84C112.353 279.227 113.547 278.92 114.84 278.92C116.32 278.92 117.633 279.287 118.78 280.02C119.94 280.74 120.78 281.767 121.3 283.1H118.56C118.2 282.367 117.7 281.82 117.06 281.46C116.42 281.1 115.68 280.92 114.84 280.92C113.92 280.92 113.1 281.127 112.38 281.54C111.66 281.953 111.093 282.547 110.68 283.32C110.28 284.093 110.08 284.993 110.08 286.02C110.08 287.047 110.28 287.947 110.68 288.72C111.093 289.493 111.66 290.093 112.38 290.52C113.1 290.933 113.92 291.14 114.84 291.14C115.68 291.14 116.42 290.96 117.06 290.6C117.7 290.24 118.2 289.693 118.56 288.96H121.3C120.78 290.293 119.94 291.32 118.78 292.04C117.633 292.76 116.32 293.12 114.84 293.12C113.533 293.12 112.34 292.82 111.26 292.22C110.18 291.607 109.32 290.76 108.68 289.68C108.053 288.6 107.74 287.38 107.74 286.02ZM134.569 287.22C134.569 287.633 134.542 288.007 134.489 288.34H126.069C126.135 289.22 126.462 289.927 127.049 290.46C127.635 290.993 128.355 291.26 129.209 291.26C130.435 291.26 131.302 290.747 131.809 289.72H134.269C133.935 290.733 133.329 291.567 132.449 292.22C131.582 292.86 130.502 293.18 129.209 293.18C128.155 293.18 127.209 292.947 126.369 292.48C125.542 292 124.889 291.333 124.409 290.48C123.942 289.613 123.709 288.613 123.709 287.48C123.709 286.347 123.935 285.353 124.389 284.5C124.855 283.633 125.502 282.967 126.329 282.5C127.169 282.033 128.129 281.8 129.209 281.8C130.249 281.8 131.175 282.027 131.989 282.48C132.802 282.933 133.435 283.573 133.889 284.4C134.342 285.213 134.569 286.153 134.569 287.22ZM132.189 286.5C132.175 285.66 131.875 284.987 131.289 284.48C130.702 283.973 129.975 283.72 129.109 283.72C128.322 283.72 127.649 283.973 127.089 284.48C126.529 284.973 126.195 285.647 126.089 286.5H132.189ZM141.673 287.5L146.753 293H143.673L139.593 288.26V293H137.313V278.2H139.593V286.8L143.593 281.98H146.753L141.673 287.5ZM159.362 293.18C158.322 293.18 157.382 292.947 156.542 292.48C155.702 292 155.042 291.333 154.562 290.48C154.082 289.613 153.842 288.613 153.842 287.48C153.842 286.36 154.089 285.367 154.582 284.5C155.075 283.633 155.749 282.967 156.602 282.5C157.455 282.033 158.409 281.8 159.462 281.8C160.515 281.8 161.469 282.033 162.322 282.5C163.175 282.967 163.849 283.633 164.342 284.5C164.835 285.367 165.082 286.36 165.082 287.48C165.082 288.6 164.829 289.593 164.322 290.46C163.815 291.327 163.122 292 162.242 292.48C161.375 292.947 160.415 293.18 159.362 293.18ZM159.362 291.2C159.949 291.2 160.495 291.06 161.002 290.78C161.522 290.5 161.942 290.08 162.262 289.52C162.582 288.96 162.742 288.28 162.742 287.48C162.742 286.68 162.589 286.007 162.282 285.46C161.975 284.9 161.569 284.48 161.062 284.2C160.555 283.92 160.009 283.78 159.422 283.78C158.835 283.78 158.289 283.92 157.782 284.2C157.289 284.48 156.895 284.9 156.602 285.46C156.309 286.007 156.162 286.68 156.162 287.48C156.162 288.667 156.462 289.587 157.062 290.24C157.675 290.88 158.442 291.2 159.362 291.2ZM173.396 281.8C174.263 281.8 175.036 281.98 175.716 282.34C176.409 282.7 176.949 283.233 177.336 283.94C177.723 284.647 177.916 285.5 177.916 286.5V293H175.656V286.84C175.656 285.853 175.409 285.1 174.916 284.58C174.423 284.047 173.749 283.78 172.896 283.78C172.043 283.78 171.363 284.047 170.856 284.58C170.363 285.1 170.116 285.853 170.116 286.84V293H167.836V281.98H170.116V283.24C170.489 282.787 170.963 282.433 171.536 282.18C172.123 281.927 172.743 281.8 173.396 281.8ZM185.764 281.8C186.618 281.8 187.371 281.973 188.024 282.32C188.691 282.653 189.211 283.073 189.584 283.58V281.98H191.884V293.18C191.884 294.193 191.671 295.093 191.244 295.88C190.818 296.68 190.198 297.307 189.384 297.76C188.584 298.213 187.624 298.44 186.504 298.44C185.011 298.44 183.771 298.087 182.784 297.38C181.798 296.687 181.238 295.74 181.104 294.54H183.364C183.538 295.113 183.904 295.573 184.464 295.92C185.038 296.28 185.718 296.46 186.504 296.46C187.424 296.46 188.164 296.18 188.724 295.62C189.298 295.06 189.584 294.247 189.584 293.18V291.34C189.198 291.86 188.671 292.3 188.004 292.66C187.351 293.007 186.604 293.18 185.764 293.18C184.804 293.18 183.924 292.94 183.124 292.46C182.338 291.967 181.711 291.287 181.244 290.42C180.791 289.54 180.564 288.547 180.564 287.44C180.564 286.333 180.791 285.353 181.244 284.5C181.711 283.647 182.338 282.987 183.124 282.52C183.924 282.04 184.804 281.8 185.764 281.8ZM189.584 287.48C189.584 286.72 189.424 286.06 189.104 285.5C188.798 284.94 188.391 284.513 187.884 284.22C187.378 283.927 186.831 283.78 186.244 283.78C185.658 283.78 185.111 283.927 184.604 284.22C184.098 284.5 183.684 284.92 183.364 285.48C183.058 286.027 182.904 286.68 182.904 287.44C182.904 288.2 183.058 288.867 183.364 289.44C183.684 290.013 184.098 290.453 184.604 290.76C185.124 291.053 185.671 291.2 186.244 291.2C186.831 291.2 187.378 291.053 187.884 290.76C188.391 290.467 188.798 290.04 189.104 289.48C189.424 288.907 189.584 288.24 189.584 287.48ZM199.739 287.5L204.819 293H201.739L197.659 288.26V293H195.379V278.2H197.659V286.8L201.659 281.98H204.819L199.739 287.5ZM208.113 280.52C207.7 280.52 207.353 280.38 207.073 280.1C206.793 279.82 206.653 279.473 206.653 279.06C206.653 278.647 206.793 278.3 207.073 278.02C207.353 277.74 207.7 277.6 208.113 277.6C208.513 277.6 208.853 277.74 209.133 278.02C209.413 278.3 209.553 278.647 209.553 279.06C209.553 279.473 209.413 279.82 209.133 280.1C208.853 280.38 208.513 280.52 208.113 280.52ZM209.233 281.98V293H206.953V281.98H209.233ZM215.007 283.58C215.34 283.02 215.78 282.587 216.327 282.28C216.887 281.96 217.547 281.8 218.307 281.8V284.16H217.727C216.833 284.16 216.153 284.387 215.687 284.84C215.233 285.293 215.007 286.08 215.007 287.2V293H212.727V281.98H215.007V283.58ZM230.958 287.5L236.038 293H232.958L228.878 288.26V293H226.598V278.2H228.878V286.8L232.878 281.98H236.038L230.958 287.5ZM237.412 287.44C237.412 286.333 237.639 285.353 238.092 284.5C238.559 283.647 239.185 282.987 239.972 282.52C240.772 282.04 241.652 281.8 242.612 281.8C243.479 281.8 244.232 281.973 244.872 282.32C245.525 282.653 246.045 283.073 246.432 283.58V281.98H248.732V293H246.432V291.36C246.045 291.88 245.519 292.313 244.852 292.66C244.185 293.007 243.425 293.18 242.572 293.18C241.625 293.18 240.759 292.94 239.972 292.46C239.185 291.967 238.559 291.287 238.092 290.42C237.639 289.54 237.412 288.547 237.412 287.44ZM246.432 287.48C246.432 286.72 246.272 286.06 245.952 285.5C245.645 284.94 245.239 284.513 244.732 284.22C244.225 283.927 243.679 283.78 243.092 283.78C242.505 283.78 241.959 283.927 241.452 284.22C240.945 284.5 240.532 284.92 240.212 285.48C239.905 286.027 239.752 286.68 239.752 287.44C239.752 288.2 239.905 288.867 240.212 289.44C240.532 290.013 240.945 290.453 241.452 290.76C241.972 291.053 242.519 291.2 243.092 291.2C243.679 291.2 244.225 291.053 244.732 290.76C245.239 290.467 245.645 290.04 245.952 289.48C246.272 288.907 246.432 288.24 246.432 287.48ZM265.567 281.8C266.433 281.8 267.207 281.98 267.887 282.34C268.58 282.7 269.12 283.233 269.507 283.94C269.907 284.647 270.107 285.5 270.107 286.5V293H267.847V286.84C267.847 285.853 267.6 285.1 267.107 284.58C266.613 284.047 265.94 283.78 265.087 283.78C264.233 283.78 263.553 284.047 263.047 284.58C262.553 285.1 262.307 285.853 262.307 286.84V293H260.047V286.84C260.047 285.853 259.8 285.1 259.307 284.58C258.813 284.047 258.14 283.78 257.287 283.78C256.433 283.78 255.753 284.047 255.247 284.58C254.753 285.1 254.507 285.853 254.507 286.84V293H252.227V281.98H254.507V283.24C254.88 282.787 255.353 282.433 255.927 282.18C256.5 281.927 257.113 281.8 257.767 281.8C258.647 281.8 259.433 281.987 260.127 282.36C260.82 282.733 261.353 283.273 261.727 283.98C262.06 283.313 262.58 282.787 263.287 282.4C263.993 282 264.753 281.8 265.567 281.8ZM283.488 281.98V293H281.208V291.7C280.848 292.153 280.374 292.513 279.788 292.78C279.214 293.033 278.601 293.16 277.948 293.16C277.081 293.16 276.301 292.98 275.608 292.62C274.928 292.26 274.388 291.727 273.988 291.02C273.601 290.313 273.408 289.46 273.408 288.46V281.98H275.668V288.12C275.668 289.107 275.914 289.867 276.408 290.4C276.901 290.92 277.574 291.18 278.428 291.18C279.281 291.18 279.954 290.92 280.448 290.4C280.954 289.867 281.208 289.107 281.208 288.12V281.98H283.488ZM291.931 287.44C291.931 286.333 292.158 285.353 292.611 284.5C293.078 283.647 293.705 282.987 294.491 282.52C295.291 282.04 296.171 281.8 297.131 281.8C297.998 281.8 298.751 281.973 299.391 282.32C300.045 282.653 300.565 283.073 300.951 283.58V281.98H303.251V293H300.951V291.36C300.565 291.88 300.038 292.313 299.371 292.66C298.705 293.007 297.945 293.18 297.091 293.18C296.145 293.18 295.278 292.94 294.491 292.46C293.705 291.967 293.078 291.287 292.611 290.42C292.158 289.54 291.931 288.547 291.931 287.44ZM300.951 287.48C300.951 286.72 300.791 286.06 300.471 285.5C300.165 284.94 299.758 284.513 299.251 284.22C298.745 283.927 298.198 283.78 297.611 283.78C297.025 283.78 296.478 283.927 295.971 284.22C295.465 284.5 295.051 284.92 294.731 285.48C294.425 286.027 294.271 286.68 294.271 287.44C294.271 288.2 294.425 288.867 294.731 289.44C295.051 290.013 295.465 290.453 295.971 290.76C296.491 291.053 297.038 291.2 297.611 291.2C298.198 291.2 298.745 291.053 299.251 290.76C299.758 290.467 300.165 290.04 300.471 289.48C300.791 288.907 300.951 288.24 300.951 287.48ZM311.106 287.5L316.186 293H313.106L309.026 288.26V293H306.746V278.2H309.026V286.8L313.026 281.98H316.186L311.106 287.5ZM317.56 287.44C317.56 286.333 317.787 285.353 318.24 284.5C318.707 283.647 319.334 282.987 320.12 282.52C320.92 282.04 321.8 281.8 322.76 281.8C323.627 281.8 324.38 281.973 325.02 282.32C325.674 282.653 326.194 283.073 326.58 283.58V281.98H328.88V293H326.58V291.36C326.194 291.88 325.667 292.313 325 292.66C324.334 293.007 323.574 293.18 322.72 293.18C321.774 293.18 320.907 292.94 320.12 292.46C319.334 291.967 318.707 291.287 318.24 290.42C317.787 289.54 317.56 288.547 317.56 287.44ZM326.58 287.48C326.58 286.72 326.42 286.06 326.1 285.5C325.794 284.94 325.387 284.513 324.88 284.22C324.374 283.927 323.827 283.78 323.24 283.78C322.654 283.78 322.107 283.927 321.6 284.22C321.094 284.5 320.68 284.92 320.36 285.48C320.054 286.027 319.9 286.68 319.9 287.44C319.9 288.2 320.054 288.867 320.36 289.44C320.68 290.013 321.094 290.453 321.6 290.76C322.12 291.053 322.667 291.2 323.24 291.2C323.827 291.2 324.374 291.053 324.88 290.76C325.387 290.467 325.794 290.04 326.1 289.48C326.42 288.907 326.58 288.24 326.58 287.48ZM337.935 281.8C338.802 281.8 339.575 281.98 340.255 282.34C340.948 282.7 341.488 283.233 341.875 283.94C342.262 284.647 342.455 285.5 342.455 286.5V293H340.195V286.84C340.195 285.853 339.948 285.1 339.455 284.58C338.962 284.047 338.288 283.78 337.435 283.78C336.582 283.78 335.902 284.047 335.395 284.58C334.902 285.1 334.655 285.853 334.655 286.84V293H332.375V281.98H334.655V283.24C335.028 282.787 335.502 282.433 336.075 282.18C336.662 281.927 337.282 281.8 337.935 281.8ZM364.899 281.8C365.765 281.8 366.539 281.98 367.219 282.34C367.912 282.7 368.452 283.233 368.839 283.94C369.239 284.647 369.439 285.5 369.439 286.5V293H367.179V286.84C367.179 285.853 366.932 285.1 366.439 284.58C365.945 284.047 365.272 283.78 364.419 283.78C363.565 283.78 362.885 284.047 362.379 284.58C361.885 285.1 361.639 285.853 361.639 286.84V293H359.379V286.84C359.379 285.853 359.132 285.1 358.639 284.58C358.145 284.047 357.472 283.78 356.619 283.78C355.765 283.78 355.085 284.047 354.579 284.58C354.085 285.1 353.839 285.853 353.839 286.84V293H351.559V281.98H353.839V283.24C354.212 282.787 354.685 282.433 355.259 282.18C355.832 281.927 356.445 281.8 357.099 281.8C357.979 281.8 358.765 281.987 359.459 282.36C360.152 282.733 360.685 283.273 361.059 283.98C361.392 283.313 361.912 282.787 362.619 282.4C363.325 282 364.085 281.8 364.899 281.8ZM382.82 281.98V293H380.54V291.7C380.18 292.153 379.707 292.513 379.12 292.78C378.547 293.033 377.933 293.16 377.28 293.16C376.413 293.16 375.633 292.98 374.94 292.62C374.26 292.26 373.72 291.727 373.32 291.02C372.933 290.313 372.74 289.46 372.74 288.46V281.98H375V288.12C375 289.107 375.247 289.867 375.74 290.4C376.233 290.92 376.907 291.18 377.76 291.18C378.613 291.18 379.287 290.92 379.78 290.4C380.287 289.867 380.54 289.107 380.54 288.12V281.98H382.82ZM391.888 281.8C392.755 281.8 393.528 281.98 394.208 282.34C394.901 282.7 395.441 283.233 395.828 283.94C396.215 284.647 396.408 285.5 396.408 286.5V293H394.148V286.84C394.148 285.853 393.901 285.1 393.408 284.58C392.915 284.047 392.241 283.78 391.388 283.78C390.535 283.78 389.855 284.047 389.348 284.58C388.855 285.1 388.608 285.853 388.608 286.84V293H386.328V281.98H388.608V283.24C388.981 282.787 389.455 282.433 390.028 282.18C390.615 281.927 391.235 281.8 391.888 281.8ZM399.056 287.48C399.056 286.347 399.283 285.353 399.736 284.5C400.203 283.633 400.843 282.967 401.656 282.5C402.47 282.033 403.403 281.8 404.456 281.8C405.79 281.8 406.89 282.12 407.756 282.76C408.636 283.387 409.23 284.287 409.536 285.46H407.076C406.876 284.913 406.556 284.487 406.116 284.18C405.676 283.873 405.123 283.72 404.456 283.72C403.523 283.72 402.776 284.053 402.216 284.72C401.67 285.373 401.396 286.293 401.396 287.48C401.396 288.667 401.67 289.593 402.216 290.26C402.776 290.927 403.523 291.26 404.456 291.26C405.776 291.26 406.65 290.68 407.076 289.52H409.536C409.216 290.64 408.616 291.533 407.736 292.2C406.856 292.853 405.763 293.18 404.456 293.18C403.403 293.18 402.47 292.947 401.656 292.48C400.843 292 400.203 291.333 399.736 290.48C399.283 289.613 399.056 288.613 399.056 287.48ZM422.289 281.98V293H420.009V291.7C419.649 292.153 419.175 292.513 418.589 292.78C418.015 293.033 417.402 293.16 416.749 293.16C415.882 293.16 415.102 292.98 414.409 292.62C413.729 292.26 413.189 291.727 412.789 291.02C412.402 290.313 412.209 289.46 412.209 288.46V281.98H414.469V288.12C414.469 289.107 414.715 289.867 415.209 290.4C415.702 290.92 416.375 291.18 417.229 291.18C418.082 291.18 418.755 290.92 419.249 290.4C419.755 289.867 420.009 289.107 420.009 288.12V281.98H422.289ZM428.077 278.2V293H425.797V278.2H428.077ZM436.506 287.44C436.506 286.333 436.732 285.353 437.186 284.5C437.652 283.647 438.279 282.987 439.066 282.52C439.866 282.04 440.752 281.8 441.726 281.8C442.446 281.8 443.152 281.96 443.846 282.28C444.552 282.587 445.112 283 445.526 283.52V278.2H447.826V293H445.526V291.34C445.152 291.873 444.632 292.313 443.966 292.66C443.312 293.007 442.559 293.18 441.706 293.18C440.746 293.18 439.866 292.94 439.066 292.46C438.279 291.967 437.652 291.287 437.186 290.42C436.732 289.54 436.506 288.547 436.506 287.44ZM445.526 287.48C445.526 286.72 445.366 286.06 445.046 285.5C444.739 284.94 444.332 284.513 443.826 284.22C443.319 283.927 442.772 283.78 442.186 283.78C441.599 283.78 441.052 283.927 440.546 284.22C440.039 284.5 439.626 284.92 439.306 285.48C438.999 286.027 438.846 286.68 438.846 287.44C438.846 288.2 438.999 288.867 439.306 289.44C439.626 290.013 440.039 290.453 440.546 290.76C441.066 291.053 441.612 291.2 442.186 291.2C442.772 291.2 443.319 291.053 443.826 290.76C444.332 290.467 444.739 290.04 445.046 289.48C445.366 288.907 445.526 288.24 445.526 287.48ZM452.48 280.52C452.067 280.52 451.72 280.38 451.44 280.1C451.16 279.82 451.02 279.473 451.02 279.06C451.02 278.647 451.16 278.3 451.44 278.02C451.72 277.74 452.067 277.6 452.48 277.6C452.88 277.6 453.22 277.74 453.5 278.02C453.78 278.3 453.92 278.647 453.92 279.06C453.92 279.473 453.78 279.82 453.5 280.1C453.22 280.38 452.88 280.52 452.48 280.52ZM453.6 281.98V293H451.32V281.98H453.6ZM461.094 293.18C460.227 293.18 459.447 293.027 458.754 292.72C458.074 292.4 457.534 291.973 457.134 291.44C456.734 290.893 456.52 290.287 456.494 289.62H458.854C458.894 290.087 459.114 290.48 459.514 290.8C459.927 291.107 460.44 291.26 461.054 291.26C461.694 291.26 462.187 291.14 462.534 290.9C462.894 290.647 463.074 290.327 463.074 289.94C463.074 289.527 462.874 289.22 462.474 289.02C462.087 288.82 461.467 288.6 460.614 288.36C459.787 288.133 459.114 287.913 458.594 287.7C458.074 287.487 457.62 287.16 457.234 286.72C456.86 286.28 456.674 285.7 456.674 284.98C456.674 284.393 456.847 283.86 457.194 283.38C457.54 282.887 458.034 282.5 458.674 282.22C459.327 281.94 460.074 281.8 460.914 281.8C462.167 281.8 463.174 282.12 463.934 282.76C464.707 283.387 465.12 284.247 465.174 285.34H462.894C462.854 284.847 462.654 284.453 462.294 284.16C461.934 283.867 461.447 283.72 460.834 283.72C460.234 283.72 459.774 283.833 459.454 284.06C459.134 284.287 458.974 284.587 458.974 284.96C458.974 285.253 459.08 285.5 459.294 285.7C459.507 285.9 459.767 286.06 460.074 286.18C460.38 286.287 460.834 286.427 461.434 286.6C462.234 286.813 462.887 287.033 463.394 287.26C463.914 287.473 464.36 287.793 464.734 288.22C465.107 288.647 465.3 289.213 465.314 289.92C465.314 290.547 465.14 291.107 464.794 291.6C464.447 292.093 463.954 292.48 463.314 292.76C462.687 293.04 461.947 293.18 461.094 293.18ZM469.437 280.52C469.024 280.52 468.677 280.38 468.397 280.1C468.117 279.82 467.977 279.473 467.977 279.06C467.977 278.647 468.117 278.3 468.397 278.02C468.677 277.74 469.024 277.6 469.437 277.6C469.837 277.6 470.177 277.74 470.457 278.02C470.737 278.3 470.877 278.647 470.877 279.06C470.877 279.473 470.737 279.82 470.457 280.1C470.177 280.38 469.837 280.52 469.437 280.52ZM470.557 281.98V293H468.277V281.98H470.557ZM479.611 281.8C480.477 281.8 481.251 281.98 481.931 282.34C482.624 282.7 483.164 283.233 483.551 283.94C483.937 284.647 484.131 285.5 484.131 286.5V293H481.871V286.84C481.871 285.853 481.624 285.1 481.131 284.58C480.637 284.047 479.964 283.78 479.111 283.78C478.257 283.78 477.577 284.047 477.071 284.58C476.577 285.1 476.331 285.853 476.331 286.84V293H474.051V281.98H476.331V283.24C476.704 282.787 477.177 282.433 477.751 282.18C478.337 281.927 478.957 281.8 479.611 281.8ZM488.699 280.52C488.286 280.52 487.939 280.38 487.659 280.1C487.379 279.82 487.239 279.473 487.239 279.06C487.239 278.647 487.379 278.3 487.659 278.02C487.939 277.74 488.286 277.6 488.699 277.6C489.099 277.6 489.439 277.74 489.719 278.02C489.999 278.3 490.139 278.647 490.139 279.06C490.139 279.473 489.999 279.82 489.719 280.1C489.439 280.38 489.099 280.52 488.699 280.52ZM489.819 281.98V293H487.539V281.98H489.819Z" fill="#C2C2C2"/>
<rect y="243.001" width="595" height="4" fill="#F4F4F4"/>
<path d="M60 227.001C60 224.792 61.7909 223.001 64 223.001C66.2091 223.001 68 224.792 68 227.001V243.001H60V227.001Z" fill="#F4F4F4"/>
<path d="M516 231.001C516 228.792 517.791 227.001 520 227.001C522.209 227.001 524 228.792 524 231.001V247.001H516V231.001Z" fill="#F4F4F4"/>
<path d="M558.359 118.944L594.538 130.602V212.206H558.359V118.944Z" fill="#F4F4F4"/>
<rect x="522.18" y="90.001" width="36.1791" height="122.205" fill="#F4F4F4"/>
<rect x="486" y="100.452" width="36.1791" height="111.753" fill="#F4F4F4"/>
<rect x="494.844" y="111.708" width="5.62786" height="5.62786" fill="#E2E2E2"/>
<rect x="510.922" y="111.708" width="5.62786" height="5.62786" fill="#E2E2E2"/>
<rect x="494.844" y="124.573" width="5.62786" height="5.62786" fill="#E2E2E2"/>
<rect x="510.922" y="124.573" width="5.62786" height="5.62786" fill="#E2E2E2"/>
<rect x="494.844" y="138.239" width="5.62786" height="5.62786" fill="#E2E2E2"/>
<rect x="510.922" y="138.239" width="5.62786" height="5.62786" fill="#E2E2E2"/>
<rect x="494.844" y="151.104" width="5.62786" height="5.62786" fill="#E2E2E2"/>
<rect x="510.922" y="151.104" width="5.62786" height="5.62786" fill="#E2E2E2"/>
<rect x="531.023" y="100.452" width="5.62786" height="5.62786" fill="#E2E2E2"/>
<rect x="547.102" y="100.452" width="5.62786" height="5.62786" fill="#E2E2E2"/>
<rect x="531.023" y="113.317" width="5.62786" height="5.62786" fill="#E2E2E2"/>
<rect x="547.102" y="113.317" width="5.62786" height="5.62786" fill="#E2E2E2"/>
<rect x="531.023" y="126.983" width="5.62786" height="5.62786" fill="#E2E2E2"/>
<rect x="547.102" y="126.983" width="5.62786" height="5.62786" fill="#E2E2E2"/>
<rect x="531.023" y="139.849" width="5.62786" height="5.62786" fill="#E2E2E2"/>
<rect x="547.102" y="139.849" width="5.62786" height="5.62786" fill="#E2E2E2"/>
<rect x="565.594" y="135.829" width="5.62786" height="5.62786" fill="#E2E2E2"/>
<rect x="581.672" y="135.829" width="5.62786" height="5.62786" fill="#E2E2E2"/>
<rect x="565.594" y="148.692" width="5.62786" height="5.62786" fill="#E2E2E2"/>
<rect x="581.672" y="148.692" width="5.62786" height="5.62786" fill="#E2E2E2"/>
<rect x="565.594" y="162.36" width="5.62786" height="5.62786" fill="#E2E2E2"/>
<rect x="581.672" y="162.36" width="5.62786" height="5.62786" fill="#E2E2E2"/>
<rect x="565.594" y="175.224" width="5.62786" height="5.62786" fill="#E2E2E2"/>
<rect x="581.672" y="175.224" width="5.62786" height="5.62786" fill="#E2E2E2"/>
<path d="M72.2305 118.894L108.346 130.531V211.992H72.2305V118.894Z" fill="#F4F4F4"/>
<rect x="36.1172" y="90.001" width="36.116" height="121.992" fill="#F4F4F4"/>
<rect y="100.435" width="36.116" height="111.558" fill="#F4F4F4"/>
<rect x="8.82812" y="111.671" width="5.61804" height="5.61804" fill="#E2E2E2"/>
<rect x="24.8789" y="111.671" width="5.61804" height="5.61804" fill="#E2E2E2"/>
<rect x="8.82812" y="124.513" width="5.61804" height="5.61804" fill="#E2E2E2"/>
<rect x="24.8789" y="124.513" width="5.61804" height="5.61804" fill="#E2E2E2"/>
<rect x="8.82812" y="138.155" width="5.61804" height="5.61804" fill="#E2E2E2"/>
<rect x="24.8789" y="138.155" width="5.61804" height="5.61804" fill="#E2E2E2"/>
<rect x="8.82812" y="150.997" width="5.61804" height="5.61804" fill="#E2E2E2"/>
<rect x="24.8789" y="150.997" width="5.61804" height="5.61804" fill="#E2E2E2"/>
<rect x="44.9453" y="100.435" width="5.61804" height="5.61804" fill="#E2E2E2"/>
<rect x="60.9961" y="100.435" width="5.61804" height="5.61804" fill="#E2E2E2"/>
<rect x="44.9453" y="113.274" width="5.61804" height="5.61804" fill="#E2E2E2"/>
<rect x="60.9961" y="113.274" width="5.61804" height="5.61804" fill="#E2E2E2"/>
<rect x="44.9453" y="126.921" width="5.61804" height="5.61804" fill="#E2E2E2"/>
<rect x="60.9961" y="126.921" width="5.61804" height="5.61804" fill="#E2E2E2"/>
<rect x="44.9453" y="139.761" width="5.61804" height="5.61804" fill="#E2E2E2"/>
<rect x="60.9961" y="139.761" width="5.61804" height="5.61804" fill="#E2E2E2"/>
<rect x="79.4531" y="135.749" width="5.61804" height="5.61804" fill="#E2E2E2"/>
<rect x="95.5078" y="135.749" width="5.61804" height="5.61804" fill="#E2E2E2"/>
<rect x="79.4531" y="148.591" width="5.61804" height="5.61804" fill="#E2E2E2"/>
<rect x="95.5078" y="148.591" width="5.61804" height="5.61804" fill="#E2E2E2"/>
<rect x="79.4531" y="162.233" width="5.61804" height="5.61804" fill="#E2E2E2"/>
<rect x="95.5078" y="162.233" width="5.61804" height="5.61804" fill="#E2E2E2"/>
<rect x="79.4531" y="175.075" width="5.61804" height="5.61804" fill="#E2E2E2"/>
<rect x="95.5078" y="175.075" width="5.61804" height="5.61804" fill="#E2E2E2"/>
<rect y="212.001" width="595" height="4" fill="#F4F4F4"/>
<rect x="175.941" y="167.884" width="52.1067" height="6.39907" rx="3.19953" fill="#F95031"/>
<rect x="154" y="180.683" width="57.5916" height="6.39907" rx="3.19953" fill="#F95031"/>
<rect width="12.7981" height="6.39907" rx="3.19953" transform="matrix(-1 0 0 1 227.133 180.683)" fill="#F95031"/>
<rect x="189.652" y="195.308" width="37.4803" height="6.39907" rx="3.19953" fill="#F95031"/>
<path d="M358.215 235.471V228.368H360.419V233.277C360.416 233.86 360.183 234.418 359.77 234.829C359.357 235.24 358.798 235.471 358.215 235.471Z" fill="#828282"/>
<path d="M358.215 216.963V227.231H295.385C294.962 224.693 293.653 222.387 291.689 220.724C289.726 219.061 287.237 218.148 284.664 218.148C282.091 218.148 279.601 219.061 277.638 220.724C275.675 222.387 274.365 224.693 273.942 227.231H232.652L234.447 216.962L358.215 216.963Z" fill="#FF6A3A"/>
<path d="M358.216 227.229V229.776H295.534V229.027C295.535 228.425 295.484 227.823 295.383 227.229H326.8H358.216Z" fill="#FF6A3A"/>
<path d="M384.466 181.797L358.215 179.056V228.614H360.372V228.517C360.371 227.14 360.642 225.778 361.169 224.506C361.695 223.234 362.467 222.079 363.44 221.106C364.413 220.132 365.569 219.36 366.841 218.834C368.112 218.308 369.475 218.037 370.851 218.037C372.228 218.037 373.591 218.308 374.862 218.834C376.134 219.36 377.289 220.132 378.263 221.106C379.236 222.079 380.008 223.234 380.534 224.506C381.061 225.778 381.331 227.14 381.331 228.517V228.614H397.001V201.399L384.466 181.797Z" fill="#FF6A3A"/>
<path d="M397.001 211.962H394.848V216.958H397.001V211.962Z" fill="url(#paint0_linear_3785_5027)"/>
<path d="M364.387 193.137V185.292C364.387 185.037 364.441 184.785 364.545 184.552C364.65 184.32 364.802 184.112 364.993 183.943C365.183 183.773 365.407 183.646 365.65 183.569C365.893 183.493 366.15 183.468 366.403 183.497L380.874 185.147C381.357 185.202 381.822 185.36 382.239 185.611C382.655 185.862 383.012 186.2 383.286 186.602L393.675 201.779H381.63L366.046 195.58C365.557 195.386 365.137 195.049 364.841 194.614C364.545 194.178 364.387 193.664 364.387 193.137Z" fill="url(#paint1_linear_3785_5027)"/>
<path d="M370.877 202.122H363.824V202.932H370.877V202.122Z" fill="url(#paint2_linear_3785_5027)"/>
<path d="M232.652 227.229H273.945C273.847 227.824 273.798 228.425 273.798 229.027V229.776H232.652V227.229Z" fill="#FF6A3A"/>
<path d="M290.755 234.829C294.187 231.397 294.187 225.832 290.755 222.399C287.322 218.967 281.757 218.967 278.324 222.399C274.892 225.832 274.892 231.397 278.324 234.829C281.757 238.262 287.322 238.262 290.755 234.829Z" fill="#626262"/>
<path d="M287.777 231.852C289.566 230.064 289.566 227.164 287.777 225.376C285.989 223.588 283.089 223.588 281.301 225.376C279.512 227.164 279.512 230.064 281.301 231.852C283.089 233.641 285.989 233.641 287.777 231.852Z" fill="#828282"/>
<path d="M286.204 228.615C286.207 228.948 286.111 229.275 285.929 229.553C285.746 229.832 285.485 230.05 285.178 230.179C284.872 230.309 284.533 230.345 284.206 230.282C283.879 230.219 283.578 230.06 283.342 229.826C283.105 229.592 282.943 229.292 282.877 228.966C282.811 228.64 282.843 228.301 282.97 227.993C283.097 227.685 283.312 227.422 283.589 227.236C283.865 227.051 284.191 226.952 284.524 226.952C284.966 226.952 285.391 227.127 285.706 227.438C286.02 227.75 286.199 228.173 286.204 228.615Z" fill="white"/>
<path d="M379.623 229.992C380.394 225.2 377.134 220.689 372.341 219.918C367.549 219.147 363.038 222.407 362.267 227.2C361.496 231.993 364.756 236.503 369.549 237.274C374.342 238.045 378.852 234.785 379.623 229.992Z" fill="#626262"/>
<path d="M375.389 229.624C375.966 227.162 374.438 224.697 371.976 224.12C369.513 223.542 367.049 225.07 366.472 227.533C365.894 229.995 367.422 232.459 369.884 233.037C372.347 233.615 374.811 232.087 375.389 229.624Z" fill="#828282"/>
<path d="M370.967 230.037C371.888 230.037 372.634 229.291 372.634 228.371C372.634 227.45 371.888 226.704 370.967 226.704C370.047 226.704 369.301 227.45 369.301 228.371C369.301 229.291 370.047 230.037 370.967 230.037Z" fill="white"/>
<path d="M246.37 163.84C247.416 159.254 251.494 156.001 256.197 156.001H344.838C350.404 156.001 354.917 160.514 354.917 166.081V214.127H234.902L246.37 163.84Z" fill="#F95031"/>
<circle cx="53.6539" cy="35.0738" r="7.79838" transform="rotate(-14.7308 53.6539 35.0738)" fill="#E2E2E2"/>
<circle cx="61.7522" cy="32.137" r="7.01854" transform="rotate(-14.7308 61.7522 32.137)" fill="#E2E2E2"/>
<circle cx="52.7288" cy="24.7289" r="5.50904" transform="rotate(-14.7308 52.7288 24.7289)" fill="#E2E2E2"/>
<circle cx="43.5725" cy="30.4671" r="7.01854" transform="rotate(-14.7308 43.5725 30.4671)" fill="#E2E2E2"/>
<circle cx="449.654" cy="58.0738" r="7.79838" transform="rotate(-14.7308 449.654 58.0738)" fill="#E2E2E2"/>
<circle cx="457.752" cy="55.137" r="7.01854" transform="rotate(-14.7308 457.752 55.137)" fill="#E2E2E2"/>
<circle cx="448.729" cy="47.7289" r="5.50904" transform="rotate(-14.7308 448.729 47.7289)" fill="#E2E2E2"/>
<circle cx="439.573" cy="53.4671" r="7.01854" transform="rotate(-14.7308 439.573 53.4671)" fill="#E2E2E2"/>
<circle cx="198.654" cy="98.0738" r="7.79838" transform="rotate(-14.7308 198.654 98.0738)" fill="#E2E2E2"/>
<circle cx="206.752" cy="95.135" r="7.01854" transform="rotate(-14.7308 206.752 95.135)" fill="#E2E2E2"/>
<circle cx="197.225" cy="89.5725" r="7.01854" transform="rotate(-14.7308 197.225 89.5725)" fill="#E2E2E2"/>
<circle cx="188.573" cy="93.4671" r="7.01854" transform="rotate(-14.7308 188.573 93.4671)" fill="#E2E2E2"/>
<circle cx="546.654" cy="17.0738" r="7.79838" transform="rotate(-14.7308 546.654 17.0738)" fill="#E2E2E2"/>
<circle cx="554.752" cy="14.135" r="7.01854" transform="rotate(-14.7308 554.752 14.135)" fill="#E2E2E2"/>
<circle cx="545.225" cy="8.57253" r="7.01854" transform="rotate(-14.7308 545.225 8.57253)" fill="#E2E2E2"/>
<circle cx="536.573" cy="12.4671" r="7.01854" transform="rotate(-14.7308 536.573 12.4671)" fill="#E2E2E2"/>
<defs>
<linearGradient id="paint0_linear_3785_5027" x1="4549" y1="5328.06" x2="4562.81" y2="5328.06" gradientUnits="userSpaceOnUse">
<stop stop-color="#FFC572"/>
<stop offset="1" stop-color="#FF4EB3"/>
</linearGradient>
<linearGradient id="paint1_linear_3785_5027" x1="379.332" y1="211.986" x2="378.891" y2="190.829" gradientUnits="userSpaceOnUse">
<stop stop-color="#D2DFEF"/>
<stop offset="0.36" stop-color="#D9E3F0"/>
<stop offset="0.87" stop-color="#ECEFF1"/>
<stop offset="1" stop-color="#F2F2F2"/>
</linearGradient>
<linearGradient id="paint2_linear_3785_5027" x1="13315.6" y1="1002.51" x2="13463.6" y2="1002.51" gradientUnits="userSpaceOnUse">
<stop stop-color="#FFC572"/>
<stop offset="1" stop-color="#FF4EB3"/>
</linearGradient>
</defs>
</svg>
